<svg width="84" height="60" viewBox="0 0 84 60" fill="none" xmlns="http://www.w3.org/2000/svg">
<path d="M45.8005 46H47.7494C53.5963 45.7091 57.6891 41.1515 57.6891 35.7212C57.6891 33.8788 57.2993 32.0364 56.4223 30.5818H45.8005V46Z" fill="#FF000F"/>
<path d="M44.826 30.4848H35.0812V46H44.826V30.4848Z" fill="#FF000F"/>
<path d="M55.8376 29.5152C54.8631 28.1576 53.4988 27.0909 52.0371 26.3152C53.7912 25.0545 54.9606 23.0182 54.9606 20.7879C54.9606 17.0061 51.9397 14 48.1392 14H45.8005V29.5152H55.8376Z" fill="#FF000F"/>
<path d="M44.826 14H35.0812V29.5152H44.826V14Z" fill="#FF000F"/>
<path d="M72.1114 46H74.0603C79.9072 45.7091 84 41.1515 84 35.7212C84 33.8788 83.6102 32.0364 82.7332 30.5818H72.1114V46Z" fill="#FF000F"/>
<path d="M71.1369 30.4848H61.3921V46H71.1369V30.4848Z" fill="#FF000F"/>
<path d="M82.1485 29.5152C81.174 28.1576 79.8098 27.0909 78.348 26.3152C80.1021 25.0545 81.2715 23.0182 81.2715 20.7879C81.2715 17.0061 78.2506 14 74.4501 14H72.1114V29.5152H82.1485Z" fill="#FF000F"/>
<path d="M71.1369 14H61.3921V29.5152H71.1369V14Z" fill="#FF000F"/>
<path d="M5.55452 30.4848L0 46H8.08817L10.4269 39.2121H15.5916V30.4848H5.55452Z" fill="#FF000F"/>
<path d="M15.5916 14H11.4014L5.84687 29.5152H15.5916V14Z" fill="#FF000F"/>
<path d="M16.5661 39.2121H21.7309L24.0696 46H32.1578L26.6032 30.4848H16.5661V39.2121Z" fill="#FF000F"/>
<path d="M26.3109 29.5152L20.7564 14H16.5661V29.5152H26.3109Z" fill="#FF000F"/>
</svg>
