<svg width="132" height="60" viewBox="0 0 132 60" fill="none" xmlns="http://www.w3.org/2000/svg">
<path fill-rule="evenodd" clip-rule="evenodd" d="M15.014 16.6793C11.9969 15.338 10.1965 14.8182 8.40969 14.8182C6.53435 14.8182 5.33335 15.4899 5.33335 16.5292C5.33335 19.6643 15.9594 18.7814 15.9594 26.0335C15.9594 30.0316 12.6071 32.3547 7.95034 32.3547C4.29631 32.3547 2.49865 31.4086 0.426381 30.3376V25.8527C3.4151 27.8345 5.24347 28.5348 7.54835 28.5348C9.54791 28.5348 10.6261 27.8345 10.6261 26.6144C10.6261 23.2004 0 24.4503 0 16.984C0 13.3833 3.10932 11 7.95034 11C10.2864 11 12.3943 11.49 15.014 12.6179V16.6793Z" fill="#3DCD58"/>
<path fill-rule="evenodd" clip-rule="evenodd" d="M29.8913 31.4013C28.1207 32.0446 26.623 32.3516 25.1284 32.3516C20.1794 32.3516 16.9802 29.4665 16.9802 25.0774C16.9802 20.7692 20.3032 17.7249 24.9445 17.7249C26.3782 17.7249 28.2106 18.0929 29.6763 18.639V21.9373C28.5164 21.3202 27.1726 20.9821 26.0733 20.9821C23.4174 20.9821 21.7079 22.5801 21.7079 25.0444C21.7079 27.5456 23.3885 29.1916 25.9197 29.1916C26.9875 29.1916 27.9369 28.9452 29.8913 28.2134V31.4013Z" fill="#3DCD58"/>
<path fill-rule="evenodd" clip-rule="evenodd" d="M68.4741 23.4612C68.6561 21.5033 69.7912 20.3713 71.5306 20.3713C73.242 20.3713 74.4009 21.5354 74.5839 23.4612H68.4741ZM71.2257 17.729C66.8833 17.729 63.7921 20.7994 63.7921 25.1185C63.7921 29.4696 67.0075 32.3516 71.961 32.3516C73.0581 32.3516 75.7131 32.3516 78.242 30.4777V27.7247C76.1697 29.2007 74.7998 29.7097 73.0315 29.7097C70.2406 29.7097 68.5342 28.2635 68.3802 25.7975H78.4899C78.7004 20.6471 75.3224 17.729 71.2257 17.729Z" fill="#3DCD58"/>
<path fill-rule="evenodd" clip-rule="evenodd" d="M80.2008 32.0948H84.6223V17.9894H80.2008V32.0948Z" fill="#3DCD58"/>
<path fill-rule="evenodd" clip-rule="evenodd" d="M96.9244 28.2391C96.0039 29.0682 95.2388 29.4009 94.2934 29.4009C92.2121 29.4009 90.8955 27.6871 90.8955 25.1171C90.8955 22.3008 92.2121 20.6778 94.4402 20.6778C95.2388 20.6778 96.2799 21.0449 96.9244 21.5056V28.2391ZM96.9244 11.2595V18.6087C95.7302 18.0296 94.5405 17.7259 93.2523 17.7259C89.2207 17.7259 86.4303 20.7077 86.4303 25.0249C86.4303 29.2481 89.2207 32.3552 93.0034 32.3552C94.5034 32.3552 95.6633 31.961 96.9244 30.9542V32.0903H101.344V11.2595H96.9244Z" fill="#3DCD58"/>
<path fill-rule="evenodd" clip-rule="evenodd" d="M107.888 23.4612C108.072 21.5033 109.201 20.3713 110.94 20.3713C112.653 20.3713 113.822 21.5354 114.006 23.4612H107.888ZM110.637 17.729C106.296 17.729 103.21 20.7994 103.21 25.1185C103.21 29.4696 106.425 32.3516 111.373 32.3516C112.47 32.3516 115.128 32.3516 117.663 30.4777V27.7247C115.59 29.2007 114.217 29.7097 112.441 29.7097C109.664 29.7097 107.95 28.2635 107.797 25.7975H117.903C118.113 20.6471 114.732 17.729 110.637 17.729Z" fill="#3DCD58"/>
<path fill-rule="evenodd" clip-rule="evenodd" d="M124.521 22.0282H124.586C125.898 19.0924 127.367 17.7164 129.072 17.7164C129.956 17.7164 130.718 18.0531 132 19.0034L130.784 22.9133C129.622 22.1805 128.86 21.8745 128.158 21.8745C126.537 21.8745 125.499 23.4043 124.521 25.9905V32.0758H120.094V17.9754H124.521V22.0282Z" fill="#3DCD58"/>
<path fill-rule="evenodd" clip-rule="evenodd" d="M84.8287 12.0565C85.2442 13.1523 84.4972 14.6803 83.1652 15.4664C81.8282 16.2526 80.4154 16.0035 80.0026 14.9072C79.5843 13.8091 80.3273 12.2793 81.6634 11.4973C82.9962 10.7071 84.41 10.9584 84.8287 12.0565Z" fill="#3DCD58"/>
<path fill-rule="evenodd" clip-rule="evenodd" d="M45.8145 23.1172C45.8145 19.2954 43.2197 17.729 40.6578 17.729C38.9161 17.729 37.4843 18.4654 36.2034 20.0883H36.1424V11.259H31.7183V32.0537H36.1424V23.1172C37.1776 21.6181 38.0629 20.9771 39.099 20.9771C40.4748 20.9771 41.3899 21.9563 41.3899 24.0634V29.0185C42.8737 28.2554 44.3827 27.7866 45.8145 27.6126V23.1172Z" fill="#3DCD58"/>
<path fill-rule="evenodd" clip-rule="evenodd" d="M56.9144 17.7254C55.1118 17.7254 53.736 18.3954 52.3272 20.0074V17.9894H47.904V27.5746C49.4365 27.7278 51.3918 28.4308 52.3272 29.5931V23.0064C53.4903 21.2597 54.3155 20.6774 55.4157 20.6774C56.6687 20.6774 57.6208 21.5056 57.6208 23.4938V32.0577H62.0449V23.1285C62.0449 18.9745 59.1136 17.7254 56.9144 17.7254Z" fill="#3DCD58"/>
<path fill-rule="evenodd" clip-rule="evenodd" d="M64.489 36.1082H59.348V39.7641H64.3078V41.3332H59.348V45.1044H64.6425V46.6712H57.6244V34.5432H64.489V36.1082Z" fill="#3DCD58"/>
<path fill-rule="evenodd" clip-rule="evenodd" d="M68.6877 46.678H70.2622V34.5387H68.6877V46.678Z" fill="#3DCD58"/>
<path fill-rule="evenodd" clip-rule="evenodd" d="M78.0581 39.8794C79.1751 39.8794 79.8666 40.6493 79.9186 41.8585H75.9082C76.125 40.5955 76.8522 39.8794 78.0581 39.8794ZM75.8788 42.9105H81.4895C81.4895 39.9513 80.1385 38.5232 78.022 38.5232C75.8269 38.5232 74.3034 40.1475 74.3034 42.5692C74.3034 44.7834 75.6801 46.8286 78.1593 46.8286C79.5098 46.8286 80.3842 46.5275 81.3513 45.8846V44.3503C80.4163 44.9633 79.5098 45.3164 78.5559 45.3164C77.031 45.3164 76.125 44.4972 75.8788 42.9105Z" fill="#3DCD58"/>
<path fill-rule="evenodd" clip-rule="evenodd" d="M91.7722 40.7754C90.8662 40.1542 90.2618 39.9725 89.5721 39.9725C88.1304 39.9725 87.1322 41.0792 87.1322 42.7003C87.1322 44.3503 88.1945 45.3453 89.8359 45.3453C90.5103 45.3453 91.1539 45.1704 91.9484 44.8146V46.3684C91.4177 46.6197 90.4064 46.8277 89.5721 46.8277C87.1882 46.8277 85.5324 45.1866 85.5324 42.8404C85.5324 40.1945 87.0441 38.5232 89.4642 38.5232C90.3883 38.5232 91.0098 38.7384 91.7722 39.0733V40.7754Z" fill="#3DCD58"/>
<path fill-rule="evenodd" clip-rule="evenodd" d="M98.9466 38.6755H101.473V40.0955H98.9466V44.2007C98.9466 45.1405 99.6259 45.4118 100.085 45.4118C100.655 45.4118 101.242 45.2115 101.881 44.8178V46.2965C101.327 46.6007 100.479 46.8277 99.9584 46.8277C98.2443 46.8277 97.378 45.7626 97.378 44.3196V40.0955H95.9877V39.9196L98.9466 37.0223V38.6755Z" fill="#3DCD58"/>
<path fill-rule="evenodd" clip-rule="evenodd" d="M107.495 38.6755V40.5263H107.527C108.331 39.1095 109.094 38.5223 109.838 38.5223C110.478 38.5223 111.079 38.8234 111.739 39.4486L110.905 40.8373C110.425 40.3636 109.805 40.0354 109.43 40.0354C108.347 40.0354 107.495 41.1384 107.495 42.5054V46.6789H105.923V38.6755H107.495Z" fill="#3DCD58"/>
<path fill-rule="evenodd" clip-rule="evenodd" d="M127.874 40.7754C126.964 40.1542 126.361 39.9725 125.666 39.9725C124.228 39.9725 123.238 41.0792 123.238 42.7003C123.238 44.3503 124.303 45.3453 125.933 45.3453C126.609 45.3453 127.248 45.1704 128.053 44.8146V46.3684C127.512 46.6197 126.499 46.8277 125.666 46.8277C123.286 46.8277 121.624 45.1866 121.624 42.8404C121.624 40.1945 123.142 38.5232 125.562 38.5232C126.489 38.5232 127.103 38.7384 127.874 39.0733V40.7754Z" fill="#3DCD58"/>
<path fill-rule="evenodd" clip-rule="evenodd" d="M115.912 46.678H117.487V38.6751H115.912V46.678Z" fill="#3DCD58"/>
<path fill-rule="evenodd" clip-rule="evenodd" d="M117.54 35.8004C117.694 36.1874 117.425 36.7321 116.953 37.0115C116.475 37.2904 115.971 37.2004 115.827 36.8135C115.683 36.4233 115.944 35.8813 116.422 35.6024C116.895 35.3203 117.396 35.4102 117.54 35.8004Z" fill="#3DCD58"/>
<path fill-rule="evenodd" clip-rule="evenodd" d="M47.0579 36.4473C46.7802 36.4473 46.6632 36.4925 46.5494 36.6195C46.5055 36.6697 46.4875 36.7194 46.4712 36.8193L45.0597 42.18C44.7278 44.0587 42.4206 45.9366 39.4134 45.9366H35.2327L35.9581 43.1817H38.6442C38.9188 43.1817 39.1324 43.0809 39.3122 42.8807C39.3773 42.8029 39.4644 42.6808 39.4753 42.5556L40.5904 37.8727C40.9193 35.9916 42.9044 33.9144 45.9107 33.9144H50.1912L49.6438 36.4473H47.0579ZM48.0232 39.7135L48.5006 37.9798H52.8502C53.3868 35.4654 52.964 33.1355 51.4392 31.6093C48.3538 28.5221 41.898 29.5714 37.0882 34.1766C36.3379 34.8913 35.7033 35.6643 35.1248 36.4545H37.7435L37.1352 38.1927H34.0069C33.7083 38.7406 33.4274 39.2836 33.2124 39.8355H36.9224L36.3289 41.5737H32.683C32.0597 44.2278 32.4572 46.7047 34.0249 48.277C37.0733 51.3262 43.5087 50.2539 48.3158 45.65C49.1573 44.849 49.8515 43.9846 50.4789 43.0967H47.1149L47.6275 41.3626H51.5611C51.8488 40.8106 52.1149 40.2655 52.3213 39.7135H48.0232Z" fill="#3DCD58"/>
</svg>
