<svg width="121" height="60" viewBox="0 0 121 60" fill="none" xmlns="http://www.w3.org/2000/svg">
<path d="M53.6992 40.1648H71.3892C71.5465 40.1648 71.7037 40.3182 71.7037 40.4716V43.6932C71.7037 43.8466 71.5465 44 71.3892 44H53.6992C53.5419 44 53.3847 43.8466 53.3847 43.6932V40.4716C53.3847 40.3182 53.5419 40.1648 53.6992 40.1648Z" fill="#3D1152"/>
<path d="M53.6992 28.5824H71.3892C71.5465 28.5824 71.7037 28.7358 71.7037 28.8892V32.1108C71.7037 32.2642 71.5465 32.4176 71.3892 32.4176H53.6992C53.5419 32.4176 53.3847 32.2642 53.3847 32.1108V28.8892C53.3847 28.7358 53.5419 28.5824 53.6992 28.5824Z" fill="#3D1152"/>
<path d="M53.6992 17.0767H71.3892C71.5465 17.0767 71.7037 17.2301 71.7037 17.3835V20.6051C71.7037 20.7585 71.5465 20.9119 71.3892 20.9119H53.6992C53.5419 20.9119 53.3847 20.7585 53.3847 20.6051V17.3835C53.3847 17.2301 53.5419 17.0767 53.6992 17.0767Z" fill="#3D1152"/>
<path d="M29.4834 17.2301L37.0312 34.0284C37.1098 34.1818 37.2671 34.2585 37.4243 34.1818C37.5029 34.1818 37.5815 34.1051 37.5815 34.0284L44.9721 17.2301C45.0507 17.1534 45.1293 17.0767 45.2865 17.0767H48.9032C49.0604 17.0767 49.2177 17.2301 49.2177 17.3835C49.2177 17.4602 49.2177 17.4602 49.2177 17.5369L37.5815 43.7699C37.5029 43.9233 37.3457 44 37.1884 43.9233C37.1098 43.9233 37.0312 43.8466 37.0312 43.7699L25.3164 17.5369C25.2378 17.3835 25.3164 17.2301 25.4737 17.1534C25.4737 17.1534 25.5523 17.1534 25.6309 17.1534H29.2476C29.3262 17.0767 29.4048 17.1534 29.4834 17.2301Z" fill="#3D1152"/>
<path d="M27.8324 43.5398L16.1176 17.2301C16.039 17.0767 15.8817 17 15.7245 17.0767C15.6459 17.0767 15.5673 17.1534 15.5673 17.2301L8.01949 34.3352H0.235868C0.0786234 34.3352 0 34.4886 0 34.642V34.7187L1.49383 38.017C1.49383 38.0937 1.65107 38.1705 1.7297 38.1705H6.44704L4.08837 43.5398C4.00975 43.6932 4.08837 43.8466 4.24562 43.9233C4.24562 43.9233 4.32424 43.9233 4.40286 43.9233H8.01949C8.17674 43.9233 8.25536 43.8466 8.33398 43.7699L10.7713 38.1705H21.3067L23.8226 43.7699C23.9012 43.8466 23.9799 43.9233 24.1371 43.9233H27.7537C27.911 43.9233 28.0682 43.7699 28.0682 43.6165C27.8324 43.6165 27.8324 43.6165 27.8324 43.5398ZM12.2651 34.4119L15.5673 27.0483C15.6459 26.8949 15.8031 26.8182 15.9604 26.8949C16.039 26.8949 16.1176 26.9716 16.1176 27.0483L19.4198 34.4119H12.2651Z" fill="#3D1152"/>
<path d="M79.8019 17.2301L87.3496 34.0284C87.4282 34.1818 87.5855 34.2585 87.7427 34.1818C87.8214 34.1818 87.9 34.1051 87.9 34.0284L95.2905 17.2301C95.3691 17.1534 95.4477 17.0767 95.605 17H99.2216C99.3789 17 99.5361 17.1534 99.5361 17.3068V17.3835L87.9 43.6932C87.8214 43.8466 87.6641 43.9233 87.5069 43.8466C87.4282 43.8466 87.3496 43.7699 87.3496 43.6932L75.6349 17.3835C75.5562 17.2301 75.6349 17.0767 75.7921 17C75.7921 17 75.8707 17 75.9494 17H79.566C79.6446 17.0767 79.7232 17.1534 79.8019 17.2301Z" fill="#3D1152"/>
<path d="M120.921 43.5398L109.207 17.2301C109.128 17.0767 108.971 17 108.814 17.0767C108.735 17.0767 108.656 17.1534 108.656 17.2301L97.0201 43.5398C96.9415 43.6932 97.0201 43.8466 97.1774 43.9233C97.256 43.9233 97.256 43.9233 97.3346 43.9233H100.951C101.109 43.9233 101.187 43.8466 101.266 43.7699L103.703 38.1705H114.238L116.754 43.7699C116.833 43.8466 116.912 43.9233 117.069 43.9233H120.686C120.843 43.9233 121 43.7699 121 43.6165L120.921 43.5398ZM105.433 34.4119L108.735 27.0483C108.814 26.8949 108.971 26.8182 109.128 26.8949C109.207 26.8949 109.285 26.9716 109.285 27.0483L112.587 34.4119H105.433Z" fill="#3D1152"/>
</svg>
