<svg xmlns="http://www.w3.org/2000/svg" width="600" height="487" viewBox="0 0 600 487" fill="none"><defs><clipPath id="ClipPath-1"><rect x="493.3" y="369.9" width="21.1" height="21.1" fill="#fff"/></clipPath><clipPath id="ClipPath-2"><rect x="518.7" y="304.9" width="50.9" height="50.9" fill="#fff"/></clipPath><clipPath id="ClipPath-3"><rect x="533.7" y="363.7" width="65" height="65" fill="#fff"/></clipPath></defs><style>
@keyframes a0_t { 0% { transform: translate(518.7px,294.9px); animation-timing-function: cubic-bezier(.4,0,.6,1); } 24.98% { transform: translate(518.7px,304.9px); animation-timing-function: cubic-bezier(.4,0,.6,1); } 49.98% { transform: translate(518.7px,294.9px); animation-timing-function: cubic-bezier(.4,0,.6,1); } 75% { transform: translate(518.7px,304.9px); animation-timing-function: cubic-bezier(.4,0,.6,1); } 100% { transform: translate(518.7px,294.9px); } }
@keyframes a1_t { 0% { transform: translate(84.5px,128.2px); animation-timing-function: cubic-bezier(.4,0,.6,1); } 40% { transform: translate(84.5px,133.2px); animation-timing-function: cubic-bezier(.4,0,.6,1); } 60% { transform: translate(84.5px,128.2px); animation-timing-function: cubic-bezier(.4,0,.6,1); } 80% { transform: translate(84.5px,133.2px); animation-timing-function: cubic-bezier(.4,0,.6,1); } 100% { transform: translate(84.5px,128.2px); } }
@keyframes a2_t { 0% { transform: translate(.3px,358.5px); animation-timing-function: cubic-bezier(.4,0,.6,1); } 20% { transform: translate(.3px,348.5px); animation-timing-function: cubic-bezier(.4,0,.6,1); } 46% { transform: translate(.3px,358.5px); animation-timing-function: cubic-bezier(.4,0,.6,1); } 68% { transform: translate(.3px,348.5px); animation-timing-function: cubic-bezier(.4,0,.6,1); } 100% { transform: translate(.3px,358.5px); } }
</style><g transform="translate(484.2,360.8)"><rect width="39.2" height="39.2" rx="19.6" fill="#fff"/><g clip-path="url(#ClipPath-1)" transform="translate(-484.2,-360.8)"><path d="M507.7 372.4v15.8c0 1.8 1.2 2.8 2.5 2.8c1.2 0 2.5-0.8 2.5-2.8v-15.7c0-1.6-1.2-2.6-2.5-2.6c-1.3 0-2.5 1.1-2.5 2.5Z" fill="#f9ab00"/><path d="M501.1 380.5v7.7c0 1.8 1.2 2.8 2.5 2.8c1.2 0 2.5-0.8 2.5-2.8v-7.6c0-1.7-1.2-2.7-2.5-2.7c-1.3 0-2.5 1.2-2.5 2.6Z" fill="#e37400"/><path d="M497 391c1.4 0 2.5-1.1 2.5-2.5c0-1.4-1.1-2.5-2.5-2.5c-1.4 0-2.5 1.1-2.5 2.5c0 1.4 1.1 2.5 2.5 2.5Z" fill="#e37400"/></g></g><g transform="translate(544.2,320.3) translate(-25.5,-25.5)" style="animation: 5s linear infinite both a0_t;"><g clip-path="url(#ClipPath-2)" transform="translate(-518.7,-304.9)"><path d="M544.2 355.8c14.1 0 25.5-11.4 25.5-25.5c0-14-11.4-25.4-25.5-25.4c-14.1 0-25.5 11.4-25.5 25.4c0 14.1 11.4 25.5 25.5 25.5Z" fill="#fff"/><path d="M529.3 339.9h18.8l18.4-18.3h-37.2v18.3Z" fill="#014185"/><path d="M551.4 325h-3.7v8.7l-3.2-8.7h-3.1l-2.8 7.3c-0.2-1.8-2.1-2.5-3.7-2.9c-0.9-0.4-2-0.8-1.9-1.3c0-0.5 .5-0.8 1.6-0.8c.7 0 1.4 .1 2.7 .7l1.3-2.2c-1.3-0.6-2.9-1-4.2-1c-1.6 0-2.9 .5-3.7 1.4c-0.5 .6-0.9 1.3-0.9 2.1c0 1.1 .5 1.9 1.3 2.6c.8 .5 1.7 .8 2.5 1.1c1 .3 1.8 .6 1.8 1.2c0 .2 0 .4-0.2 .5c-0.3 .3-0.6 .4-1.2 .4c-1 0-1.8-0.1-3-0.9l-1.2 2.3c1.3 .7 2.7 1.1 4.2 1.1h.2c1.2-0.1 2.3-0.4 3.1-1.1c.1 0 .1-0.1 .2-0.1l-0.4 1h3.4l.5-1.7c.6 .2 1.2 .3 1.9 .3c.8 0 1.4-0.1 1.9-0.3l.6 1.7h5.4v-3.5h1.2c2.9 0 4.6-1.5 4.6-3.9c0-2.7-1.6-4-5.2-4Zm-8.5 7.5c-0.4 0-0.8-0.1-1.1-0.2l1.1-3.7l1.2 3.7c-0.4 .1-0.7 .2-1.2 .2Zm8.7-2.1h-0.8v-3h.8c1.1 0 2 .4 2 1.5c0 1.1-0.9 1.5-2 1.5Z" fill="#fff"/><path d="M552.7 338.8c0-0.6 .4-1 .9-1c.6 0 1 .4 1 1c0 .5-0.4 1-1 1c-0.5 0-0.9-0.5-0.9-1Zm.9 1.2c.7 0 1.3-0.6 1.3-1.2c0-0.7-0.6-1.2-1.3-1.2c-0.6 0-1.2 .5-1.2 1.2c0 .6 .6 1.2 1.2 1.2Zm-0.2-1.1h.2l.4 .5h.2l-0.3-0.6c.1 0 .3-0.1 .3-0.3c0-0.3-0.2-0.4-0.5-0.4h-0.5v1.3h.2v-0.5Zm0-0.2v-0.4h.3c.1 0 .3 0 .3 .2c0 .2-0.2 .2-0.4 .2h-0.2Z" fill="#014185"/></g></g><g transform="translate(533.7,358.9)"><g clip-path="url(#ClipPath-3)" transform="translate(-533.7,-363.7)"><path d="M566.2 428.7c17.9 0 32.5-14.6 32.5-32.5c0-18-14.6-32.5-32.5-32.5c-18 0-32.5 14.5-32.5 32.5c0 17.9 14.5 32.5 32.5 32.5Z" fill="#fff"/><path d="M562.7 384.5c1.5-1.5 3.5-2.5 5.7-2.5c2.9 0 5.4 1.7 6.8 4.1c1.2-0.5 2.5-0.8 3.9-0.8c5.2 0 9.5 4.3 9.5 9.7c0 5.4-4.3 9.8-9.5 9.8c-0.7 0-1.3-0.1-1.9-0.2c-1.2 2.1-3.5 3.6-6.1 3.6c-1.1 0-2.1-0.3-3.1-0.7c-1.2 2.9-4 4.9-7.3 4.9c-3.4 0-6.3-2.2-7.5-5.3c-0.5 .1-1 .2-1.5 .2c-4.1 0-7.4-3.4-7.4-7.6c0-2.8 1.5-5.2 3.7-6.5c-0.4-1.1-0.7-2.3-0.7-3.5c0-4.8 3.9-8.7 8.6-8.7c2.8 0 5.3 1.4 6.8 3.5Z" fill="#00a1e0"/><path d="M550.7 397.3l.2-0.5c.1-0.1 .1-0.1 .1 0c.1 0 .1 0 .2 .1c.5 .3 1 .3 1.2 .3c.4 0 .6-0.2 .6-0.5c0-0.3-0.4-0.4-0.8-0.6h-0.1c-0.6-0.2-1.2-0.4-1.2-1.2c0-0.7 .5-1.3 1.4-1.3h.1c.5 0 .9 .2 1.3 .4c0 0 0 .1 0 .1c0 .1-0.2 .5-0.2 .5c0 .1-0.1 0-0.1 0c-0.3-0.1-0.8-0.2-1.2-0.2c-0.3-0.1-0.5 .1-0.5 .4c0 .3 .4 .4 .8 .6h.1c.6 .2 1.2 .4 1.2 1.2c0 .8-0.6 1.3-1.5 1.3c-0.4 0-0.8-0.1-1.3-0.3c-0.1-0.1-0.2-0.1-0.2-0.2c-0.1 0-0.1 0-0.1-0.1Zm13.3 0l.2-0.5c0-0.1 .1-0.1 .1 0c.1 0 .1 0 .2 .1c.5 .3 1 .3 1.2 .3c.3 0 .6-0.2 .6-0.5c0-0.3-0.4-0.4-0.8-0.6h-0.1c-0.6-0.2-1.3-0.4-1.3-1.2c0-0.7 .6-1.3 1.5-1.3c.5 0 1 .2 1.3 .4c.1 0 .1 .1 .1 .1c0 .1-0.2 .5-0.2 .5c0 .1-0.1 0-0.1 0c-0.3-0.1-0.8-0.2-1.2-0.2c-0.3-0.1-0.6 .1-0.6 .4c0 .3 .4 .4 .9 .6h.1c.6 .2 1.2 .4 1.2 1.2c0 .8-0.6 1.3-1.5 1.3c-0.4 0-0.8-0.1-1.3-0.3c-0.1-0.1-0.2-0.1-0.3-0.2c0 0 0 0 0-0.1Zm9.9-2.4c0 .3 .1 .6 .1 .9c0 .3-0.1 .5-0.1 .8c-0.1 .2-0.2 .5-0.4 .7c-0.1 .2-0.3 .3-0.6 .4c-0.2 .1-0.5 .2-0.8 .2c-0.3 0-0.6-0.1-0.8-0.2c-0.2-0.1-0.4-0.2-0.6-0.4c-0.1-0.2-0.2-0.4-0.3-0.7c-0.1-0.3-0.1-0.5-0.1-0.8c0-0.3 0-0.6 .1-0.9c.1-0.2 .2-0.4 .3-0.6c.2-0.2 .4-0.4 .6-0.5c.2-0.1 .5-0.2 .8-0.2c.3 0 .6 .1 .8 .2c.3 .1 .5 .3 .6 .5c.2 .2 .3 .4 .4 .6Zm-0.8 .8c0-0.4-0.1-0.7-0.2-1c-0.2-0.2-0.5-0.4-0.8-0.4c-0.3 0-0.6 .2-0.7 .4c-0.2 .3-0.2 .6-0.2 1c0 .5 0 .8 .2 1.1c.1 .2 .4 .4 .7 .4c.4 0 .6-0.2 .8-0.4c.1-0.2 .2-0.6 .2-1.1Zm7 1.3l.2 .6c0 0-0.1 0-0.1 0c-0.2 .2-0.6 .2-1 .2c-0.7 0-1.2-0.2-1.5-0.5c-0.4-0.4-0.5-0.9-0.5-1.6c0-0.3 0-0.5 .1-0.8c.1-0.3 .2-0.5 .4-0.7c.1-0.2 .3-0.3 .6-0.4c.2-0.1 .5-0.2 .8-0.2c.2 0 .4 0 .6 0c.2 .1 .4 .1 .5 .2c0 0 .1 0 0 .1c0 .2-0.1 .3-0.1 .5c-0.1 .1-0.1 0-0.1 0c-0.3-0.1-0.5-0.1-0.8-0.1c-0.4 0-0.7 .1-0.9 .4c-0.1 .2-0.3 .6-0.3 1c0 .5 .2 .8 .4 1.1c.2 .2 .5 .3 .8 .3c.2 0 .3 0 .5 0c.1-0.1 .2-0.1 .3-0.1c0 0 .1 0 .1 0Zm3.9-2.2c.1 .6 0 1.1 0 1.1c0 .1 0 .1 0 .1h-2.6c0 .4 .1 .6 .3 .8c.2 .2 .5 .3 .9 .3c.6 0 .8-0.1 1-0.1c0 0 .1-0.1 .1 0l.2 .5c0 .1 0 .1 0 .1c-0.2 .1-0.6 .3-1.3 .3c-0.4 0-0.7-0.1-0.9-0.2c-0.3-0.1-0.5-0.2-0.7-0.4c-0.2-0.2-0.3-0.4-0.4-0.7c0-0.2-0.1-0.5-0.1-0.8c0-0.3 .1-0.6 .1-0.8c.1-0.3 .2-0.5 .4-0.7c.1-0.2 .3-0.3 .6-0.5c.2-0.1 .5-0.1 .8-0.1c.3 0 .6 0 .8 .1c.1 .1 .3 .2 .5 .4c0 .1 .2 .3 .3 .6Zm-2.6 .5h1.8c0-0.2 0-0.4-0.1-0.6c-0.2-0.2-0.4-0.4-0.8-0.4c-0.3 0-0.5 .2-0.7 .4c-0.1 .2-0.1 .4-0.2 .6Zm-18-0.5c.2 .6 .1 1.1 .1 1.1c0 .1-0.1 .1-0.1 .1h-2.5c0 .4 .1 .6 .3 .8c.1 .2 .4 .3 .8 .3c.7 0 .9-0.1 1.1-0.1c0 0 .1-0.1 .1 0l.2 .5c0 .1 0 .1 0 .1c-0.2 .1-0.6 .3-1.3 .3c-0.4 0-0.7-0.1-1-0.2c-0.2-0.1-0.5-0.2-0.6-0.4c-0.2-0.2-0.3-0.4-0.4-0.7c-0.1-0.2-0.1-0.5-0.1-0.8c0-0.3 0-0.6 .1-0.8c.1-0.3 .2-0.5 .3-0.7c.2-0.2 .4-0.3 .6-0.5c.3-0.1 .6-0.1 .9-0.1c.3 0 .5 0 .7 .1c.2 .1 .3 .2 .5 .4c.1 .1 .3 .3 .3 .6Zm-2.5 .5h1.8c0-0.2-0.1-0.4-0.2-0.6c-0.1-0.2-0.4-0.4-0.7-0.4c-0.3 0-0.6 .2-0.7 .4c-0.1 .2-0.2 .4-0.2 .6Zm-4.6-0.1c0 0 .2 0 .5 0v-0.1c0-0.3-0.1-0.5-0.2-0.6c-0.2-0.1-0.4-0.1-0.7-0.1c0 0-0.6 0-1.1 .2c0 0 0 0 0 0c0 0-0.1 0-0.1 0l-0.2-0.5c0-0.1 0-0.1 0-0.1c.3-0.2 .8-0.3 .8-0.3c.2 0 .5-0.1 .7-0.1c.5 0 .9 .1 1.2 .4c.2 .2 .4 .6 .4 1.1v2.4c0 0 0 .1-0.1 .1c0 0-0.1 0-0.2 .1c-0.1 0-0.4 0-0.6 .1c-0.3 0-0.5 .1-0.8 .1c-0.3 0-0.5-0.1-0.7-0.1c-0.2-0.1-0.4-0.1-0.5-0.2c-0.1-0.1-0.3-0.3-0.3-0.5c-0.1-0.1-0.2-0.3-0.2-0.5c0-0.3 .1-0.5 .2-0.6c.1-0.2 .2-0.4 .3-0.5c.2-0.1 .4-0.2 .6-0.2c.2-0.1 .4-0.1 .6-0.1c.2 0 .3 0 .4 0Zm-1 1.8c0 0 .3 .2 .8 .2c.3 0 .7-0.1 .7-0.1v-1.2c0 0-0.4-0.1-0.7-0.1c-0.6 .1-0.8 .2-0.8 .2c-0.1 .1-0.2 .3-0.2 .5c0 .2 0 .3 .1 .4c0 0 0 .1 .1 .1Zm21.7-3.1c0 0-0.1 .4-0.2 .5c0 .1 0 .1-0.1 .1c0 0-0.1 0-0.2 0c-0.1 0-0.3 0-0.4 0c-0.1 0-0.2 .1-0.3 .2c-0.1 .1-0.2 .2-0.2 .4c-0.1 .1-0.1 .4-0.1 .7v1.9c0 0-0.1 .1-0.1 .1h-0.7c0 0-0.1-0.1-0.1-0.1v-3.9c0 0 .1-0.1 .1-0.1h.7c0 0 0 .1 0 .1v.3c.1-0.1 .3-0.2 .5-0.3c.1-0.1 .3-0.1 .6-0.1c.2 0 .4 0 .4 .1c.1 0 .1 0 .1 .1Zm-6.3-1.8c0 0 .1 0 .1 .1l-0.2 .5c-0.1 0-0.1 .1-0.2 0c0 0 0 0-0.1 0c0 0-0.1 0-0.2 0c-0.1 0-0.2 0-0.3 0c-0.1 0-0.1 .1-0.2 .2c-0.1 0-0.1 .1-0.2 .2c-0.1 .3-0.1 .6-0.1 .6h.8c.1 0 .1 .1 .1 .1l-0.1 .5c0 .1-0.1 .1-0.1 .1h-0.9l-0.5 3.3c-0.1 .4-0.1 .7-0.2 .9c-0.1 .3-0.2 .4-0.4 .6c-0.1 .2-0.3 .3-0.4 .3c-0.2 .1-0.4 .1-0.7 .1c-0.1 0-0.2 0-0.3 0c-0.1 0-0.2 0-0.3-0.1c0 0 0 0 0-0.1c0 0 .2-0.4 .2-0.5c0-0.1 .1 0 .1 0c0 0 0 0 .1 0c.1 0 .1 0 .2 0c.1 0 .2 0 .3 0c.1-0.1 .2-0.1 .2-0.2c.1-0.1 .2-0.2 .2-0.4c.1-0.1 .1-0.3 .2-0.6l.6-3.3h-0.6c-0.1 0-0.1 0-0.1-0.1l.1-0.5c0-0.1 .1-0.1 .1-0.1h.6v-0.1c.1-0.5 .3-0.9 .5-1.2c.3-0.3 .7-0.4 1.1-0.4c.2 0 .3 0 .4 0c0 0 .1 0 .2 .1Zm-11.5 5.6c0 0 0 .1 0 .1h-0.7c-0.1 0-0.1-0.1-0.1-0.1v-5.6c0 0 .1 0 .1 0h.7c0 0 0 0 0 0v5.6Z" fill="#fff"/></g></g><g transform="translate(141.8,145.8) translate(-57.3,-17.6)" style="animation: 5s linear infinite both a1_t;"><rect width="114.6" height="35.3" rx="6.6" fill="#fff"/><path d="M13.8 9.6c0 .7-0.3 1.3-0.7 1.6c-0.5 .4-1.2 .6-2.1 .6h-0.7v2.6h-1.1v-6.9h2c.8 0 1.5 .2 1.9 .5c.4 .4 .7 .9 .7 1.6Zm-3.5 1.3h.6c.6 0 1-0.1 1.3-0.3c.3-0.2 .4-0.6 .4-1c0-0.4-0.1-0.7-0.4-0.9c-0.2-0.2-0.6-0.3-1.1-0.3h-0.8v2.5Zm7.4-1.8c.2 0 .4 0 .5 0l-0.1 1.1c-0.1-0.1-0.3-0.1-0.5-0.1c-0.4 0-0.8 .2-1 .4c-0.3 .3-0.5 .7-0.5 1.2v2.7h-1.1v-5.2h.9l.1 .9h.1c.2-0.3 .4-0.6 .7-0.7c.3-0.2 .6-0.3 .9-0.3Zm6.2 2.7c0 .8-0.3 1.5-0.7 2c-0.4 .5-1 .7-1.8 .7c-0.5 0-1-0.1-1.3-0.3c-0.4-0.2-0.7-0.6-0.9-1c-0.2-0.4-0.3-0.9-0.3-1.4c0-0.9 .2-1.5 .7-2c.4-0.5 1-0.7 1.8-0.7c.8 0 1.4 .2 1.8 .7c.4 .5 .7 1.2 .7 2Zm-3.9 0c0 1.2 .5 1.8 1.4 1.8c.9 0 1.3-0.6 1.3-1.8c0-1.2-0.4-1.8-1.3-1.8c-0.5 0-0.8 .1-1 .5c-0.2 .3-0.4 .7-0.4 1.3Zm9.6-2.6v.6l-0.9 .2c.1 .1 .1 .2 .2 .4c0 .1 .1 .3 .1 .5c0 .5-0.2 .9-0.6 1.2c-0.4 .4-0.9 .5-1.5 .5c-0.2 0-0.4 0-0.5 0c-0.2 .1-0.4 .3-0.4 .5c0 .1 .1 .2 .2 .3c.1 0 .3 .1 .6 .1h.9c.6 0 1.1 .1 1.4 .3c.3 .3 .4 .6 .4 1.1c0 .6-0.2 1-0.7 1.4c-0.5 .3-1.2 .4-2.1 .4c-0.8 0-1.3-0.1-1.7-0.3c-0.4-0.3-0.5-0.6-0.5-1.1c0-0.3 .1-0.6 .3-0.8c.2-0.2 .5-0.4 .8-0.5c-0.1 0-0.3-0.1-0.4-0.3c0-0.1-0.1-0.3-0.1-0.4c0-0.2 .1-0.4 .2-0.5c.1-0.2 .2-0.3 .5-0.4c-0.3-0.2-0.5-0.3-0.7-0.6c-0.2-0.3-0.2-0.6-0.2-0.9c0-0.6 .1-1 .5-1.4c.3-0.3 .9-0.4 1.5-0.4c.2 0 .3 0 .5 0c.1 0 .3 .1 .4 .1h1.8Zm-4.1 6c0 .3 .1 .5 .3 .6c.2 .1 .5 .2 .9 .2c.6 0 1-0.1 1.3-0.3c.3-0.2 .5-0.4 .5-0.7c0-0.2-0.1-0.4-0.3-0.5c-0.1-0.1-0.4-0.1-0.9-0.1h-0.8c-0.3 0-0.6 .1-0.8 .2c-0.2 .2-0.2 .4-0.2 .6Zm.4-4.3c0 .3 .1 .6 .3 .7c.2 .2 .4 .3 .7 .3c.7 0 1-0.4 1-1c0-0.4-0.1-0.6-0.3-0.8c-0.1-0.2-0.4-0.3-0.7-0.3c-0.3 0-0.6 .1-0.7 .3c-0.2 .2-0.3 .4-0.3 .8Zm7.3-1.8c.2 0 .4 0 .6 0l-0.2 1.1c-0.1-0.1-0.3-0.1-0.4-0.1c-0.5 0-0.9 .2-1.1 .4c-0.3 .3-0.4 .7-0.4 1.2v2.7h-1.2v-5.2h.9l.2 .9c.2-0.3 .4-0.6 .7-0.7c.3-0.2 .6-0.3 .9-0.3Zm3.8 5.4c-0.8 0-1.4-0.2-1.9-0.7c-0.5-0.5-0.7-1.1-0.7-2c0-0.8 .2-1.5 .7-2c.4-0.5 1-0.7 1.7-0.7c.7 0 1.3 .2 1.7 .6c.4 .4 .6 1 .6 1.7v.6h-3.5c0 .6 .1 .9 .4 1.2c.2 .3 .6 .4 1.1 .4c.3 0 .6 0 .8-0.1c.3 0 .6-0.1 .9-0.3v1c-0.3 .1-0.6 .2-0.8 .2c-0.3 .1-0.6 .1-1 .1Zm-0.2-4.6c-0.3 0-0.6 .1-0.8 .4c-0.3 .2-0.4 .5-0.4 .9h2.4c0-0.4-0.2-0.7-0.4-0.9c-0.2-0.3-0.4-0.4-0.8-0.4Zm7 3c0 .5-0.1 .9-0.5 1.2c-0.4 .3-0.9 .4-1.6 .4c-0.7 0-1.3-0.1-1.7-0.3v-1c.6 .3 1.2 .5 1.7 .5c.7 0 1-0.3 1-0.7c0-0.1 0-0.2-0.1-0.3c0-0.1-0.2-0.2-0.3-0.3c-0.2-0.1-0.5-0.2-0.8-0.3c-0.6-0.2-1-0.5-1.2-0.7c-0.2-0.2-0.3-0.5-0.3-0.9c0-0.5 .2-0.8 .5-1c.4-0.3 .9-0.4 1.5-0.4c.6 0 1.2 .1 1.8 .4l-0.4 .8c-0.6-0.2-1-0.4-1.4-0.4c-0.6 0-0.9 .2-0.9 .5c0 .2 .1 .3 .2 .5c.2 .1 .5 .2 1 .4c.4 .2 .8 .3 1 .5c.2 .1 .3 .3 .4 .5c.1 .2 .1 .4 .1 .6Zm4.8 0c0 .5-0.2 .9-0.6 1.2c-0.4 .3-0.9 .4-1.6 .4c-0.7 0-1.3-0.1-1.7-0.3v-1c.6 .3 1.2 .5 1.7 .5c.7 0 1.1-0.3 1.1-0.7c0-0.1-0.1-0.2-0.1-0.3c-0.1-0.1-0.2-0.2-0.4-0.3c-0.2-0.1-0.4-0.2-0.7-0.3c-0.6-0.2-1.1-0.5-1.3-0.7c-0.2-0.2-0.3-0.5-0.3-0.9c0-0.5 .2-0.8 .6-1c.3-0.3 .8-0.4 1.4-0.4c.6 0 1.2 .1 1.8 .4l-0.4 .8c-0.5-0.2-1-0.4-1.4-0.4c-0.6 0-0.9 .2-0.9 .5c0 .2 .1 .3 .2 .5c.2 .1 .5 .2 1 .4c.5 .2 .8 .3 1 .5c.2 .1 .3 .3 .4 .5c.1 .2 .2 .4 .2 .6Z" fill="#000" fill-opacity=".9"/><path d="M73.2 7.9c0-1.4 1.1-2.5 2.4-2.5h30.3c1.3 0 2.4 1.1 2.4 2.5v6.4c0 1.3-1.1 2.5-2.4 2.5h-30.3c-1.3 0-2.4-1.2-2.4-2.5v-6.4Z" fill="#08cf65"/><path d="M77.5 13.1v-5h.9v4.3h2.1v.7h-3Zm7.2-1.9c0 .6-0.2 1.1-0.5 1.5c-0.3 .3-0.8 .5-1.4 .5c-0.3 0-0.6-0.1-0.9-0.3c-0.3-0.1-0.5-0.3-0.6-0.7c-0.2-0.3-0.2-0.6-0.2-1c0-0.6 .1-1.1 .4-1.4c.3-0.4 .8-0.6 1.4-0.6c.5 0 1 .2 1.3 .6c.3 .3 .5 .8 .5 1.4Zm-2.8 0c0 .9 .3 1.3 1 1.3c.6 0 .9-0.4 .9-1.3c0-0.9-0.3-1.3-0.9-1.3c-0.4 0-0.6 .1-0.8 .3c-0.1 .3-0.2 .6-0.2 1Zm6.8 1.9l-0.5-1.8c0-0.2-0.1-0.6-0.3-1.3c-0.2 .6-0.3 1.1-0.3 1.3l-0.6 1.8h-0.8l-1.1-3.8h.8l.5 1.9c.1 .4 .2 .8 .2 1.2h.1c0-0.2 0-0.4 .1-0.6c0-0.2 0-0.4 .1-0.5l.6-2h.8l.6 2c0 .1 .1 .3 .1 .5c.1 .3 .1 .4 .1 .6h.1c0-0.3 .1-0.7 .2-1.2l.5-1.9h.8l-1.1 3.8h-0.9Zm6.4-3.9c.2 0 .3 0 .4 .1l-0.1 .7c-0.1 0-0.2 0-0.3 0c-0.3 0-0.6 .1-0.8 .3c-0.2 .2-0.3 .5-0.3 .8v2h-0.8v-3.8h.6l.1 .7h.1c.1-0.3 .3-0.4 .5-0.6c.2-0.1 .4-0.2 .6-0.2Zm1.9 3.9h-0.8v-3.8h.8v3.8Zm-0.8-4.8c0-0.1 0-0.3 .1-0.3c.1-0.1 .2-0.2 .3-0.2c.2 0 .3 .1 .4 .2c.1 0 .1 .2 .1 .3c0 .1 0 .2-0.1 .3c-0.1 .1-0.2 .1-0.4 .1c-0.1 0-0.2 0-0.3-0.1c-0.1-0.1-0.1-0.2-0.1-0.3Zm4.6 3.7c0 .4-0.2 .7-0.4 .9c-0.3 .2-0.7 .3-1.2 .3c-0.5 0-0.9-0.1-1.2-0.2v-0.7c.4 .2 .8 .3 1.2 .3c.5 0 .8-0.2 .8-0.5c0-0.1-0.1-0.2-0.1-0.2c-0.1-0.1-0.2-0.2-0.3-0.2c-0.1-0.1-0.3-0.2-0.5-0.3c-0.5-0.1-0.7-0.3-0.9-0.5c-0.2-0.1-0.2-0.4-0.2-0.6c0-0.4 .1-0.6 .4-0.8c.2-0.2 .6-0.3 1-0.3c.5 0 .9 .1 1.3 .3l-0.3 .6c-0.4-0.2-0.7-0.2-1-0.2c-0.4 0-0.6 .1-0.6 .3c0 .1 0 .2 .1 .3c.1 .1 .4 .2 .8 .4c.3 .1 .5 .2 .6 .3c.2 .1 .3 .2 .4 .4c0 .1 .1 .2 .1 .4Zm1.6-0.9l.5-0.6l1.1-1.2h1l-1.6 1.6l1.7 2.2h-1l-1.2-1.7l-0.5 .4v1.3h-0.8v-5.3h.8v2.6v.7Z" fill="#fff"/><rect x="30.9" y="22.9" width="77.4" height="3.9" rx="1.1" fill="#000" fill-opacity=".04"/><rect x="30.9" y="22.9" width="58.5" height="4" rx="1.1" fill="#08cf65"/><path d="M10.8 21.4c.6 0 1 .1 1.3 .4c.4 .2 .6 .6 .6 1.1c0 .3-0.1 .6-0.3 .8c-0.2 .3-0.5 .5-1 .7c.6 .3 .9 .5 1.1 .8c.2 .2 .4 .6 .4 .9c0 .5-0.2 .9-0.6 1.3c-0.4 .3-0.9 .4-1.5 .4c-0.7 0-1.2-0.1-1.5-0.4c-0.4-0.3-0.6-0.7-0.6-1.3c0-0.7 .5-1.2 1.3-1.6c-0.4-0.3-0.6-0.5-0.8-0.8c-0.2-0.2-0.3-0.5-0.3-0.8c0-0.5 .2-0.9 .5-1.1c.4-0.3 .8-0.4 1.4-0.4Zm-1.4 4.8c0 .3 .1 .6 .4 .8c.2 .1 .6 .2 1 .2c.4 0 .8-0.1 1-0.3c.2-0.2 .3-0.4 .3-0.8c0-0.3-0.1-0.5-0.3-0.7c-0.2-0.2-0.6-0.5-1.2-0.7c-0.4 .2-0.7 .4-0.9 .7c-0.2 .2-0.3 .4-0.3 .8Zm1.4-4.3c-0.4 0-0.7 .1-0.9 .3c-0.2 .2-0.3 .4-0.3 .7c0 .2 .1 .5 .3 .7c.1 .2 .5 .3 .9 .5c.4-0.1 .7-0.3 .9-0.5c.2-0.2 .2-0.5 .2-0.7c0-0.3-0.1-0.5-0.3-0.7c-0.2-0.2-0.5-0.3-0.8-0.3Zm7.1 2.7c0 1.1-0.2 1.9-0.5 2.4c-0.3 .6-0.9 .8-1.6 .8c-0.6 0-1.2-0.2-1.5-0.8c-0.4-0.5-0.5-1.4-0.5-2.4c0-1.1 .1-1.9 .5-2.5c.3-0.5 .8-0.8 1.5-0.8c.7 0 1.2 .3 1.6 .9c.3 .5 .5 1.3 .5 2.4Zm-3.4 0c0 .9 .1 1.6 .3 2c.2 .4 .6 .6 1 .6c.5 0 .8-0.2 1.1-0.6c.2-0.4 .3-1.1 .3-2c0-0.9-0.1-1.6-0.3-2c-0.3-0.4-0.6-0.6-1.1-0.6c-0.4 0-0.8 .2-1 .6c-0.2 .4-0.3 1.1-0.3 2Zm4.9-1.3c0 .5 .1 .9 .2 1.1c.1 .3 .2 .4 .5 .4c.4 0 .7-0.5 .7-1.5c0-0.9-0.3-1.4-0.7-1.4c-0.3 0-0.4 .1-0.5 .3c-0.1 .3-0.2 .6-0.2 1.1Zm2 0c0 .7-0.1 1.2-0.4 1.5c-0.2 .3-0.5 .5-0.9 .5c-0.4 0-0.7-0.2-1-0.5c-0.2-0.3-0.3-0.8-0.3-1.5c0-0.6 .1-1.1 .3-1.5c.2-0.3 .6-0.4 1-0.4c.4 0 .7 .1 .9 .5c.3 .3 .4 .8 .4 1.4Zm1.8 2.5c0 .5 0 .9 .1 1.1c.2 .3 .3 .4 .6 .4c.2 0 .4-0.1 .5-0.3c.1-0.3 .2-0.7 .2-1.2c0-0.4-0.1-0.8-0.2-1c-0.1-0.3-0.3-0.4-0.5-0.4c-0.3 0-0.4 .1-0.6 .4c-0.1 .2-0.1 .6-0.1 1Zm2 0c0 .7-0.1 1.2-0.4 1.5c-0.2 .4-0.5 .5-0.9 .5c-0.4 0-0.8-0.1-1-0.5c-0.2-0.3-0.3-0.8-0.3-1.5c0-0.6 .1-1.1 .3-1.4c.2-0.4 .6-0.5 1-0.5c.4 0 .7 .1 .9 .5c.3 .3 .4 .8 .4 1.4Zm-1.1-4.4l-3.5 6.3h-0.7l3.5-6.3h.7Z" fill="#000" fill-opacity=".9"/></g><g transform="translate(96.4,179.4)"><rect width="118.2" height="36.4" rx="6.8" fill="#fff"/><path d="M9.5 7.4h2.1c1 0 1.7 .1 2.1 .4c.5 .3 .7 .8 .7 1.4c0 .4-0.1 .7-0.3 1c-0.2 .3-0.5 .5-1 .5v.1c.5 .1 .9 .3 1.2 .6c.2 .2 .3 .6 .3 1.1c0 .6-0.2 1.1-0.7 1.5c-0.4 .3-1 .5-1.8 .5h-2.6v-7.1Zm1.2 2.9h1.1c.5 0 .8 0 1-0.2c.3-0.1 .4-0.4 .4-0.8c0-0.3-0.1-0.6-0.4-0.7c-0.2-0.2-0.6-0.2-1.1-0.2h-1v1.9Zm0 1v2.2h1.2c.5 0 .9 0 1.1-0.2c.3-0.2 .4-0.5 .4-0.9c0-0.4-0.2-0.7-0.4-0.8c-0.3-0.2-0.6-0.3-1.2-0.3h-1.1Zm9.1 3.2l-0.2-0.7c-0.2 .3-0.4 .5-0.7 .6c-0.3 .2-0.7 .2-1 .2c-0.7 0-1.2-0.1-1.5-0.5c-0.3-0.3-0.5-0.8-0.5-1.4v-3.6h1.2v3.4c0 .4 .1 .7 .2 .9c.2 .2 .5 .3 .8 .3c.5 0 .9-0.1 1.1-0.4c.2-0.3 .3-0.8 .3-1.5v-2.7h1.2v5.4h-0.9Zm4.3 .1c-0.6 0-1.2-0.2-1.5-0.7c-0.4-0.5-0.6-1.2-0.6-2.1c0-0.8 .2-1.5 .6-2c.4-0.5 .9-0.8 1.6-0.8c.7 0 1.2 .3 1.6 .8c0-0.4 0-0.7 0-0.9v-2h1.1v7.6h-0.9l-0.2-0.7c-0.4 .6-1 .8-1.7 .8Zm.3-0.9c.5 0 .9-0.1 1.1-0.4c.2-0.3 .3-0.7 .3-1.3v-0.2c0-0.6-0.1-1.1-0.3-1.4c-0.2-0.3-0.6-0.4-1.1-0.4c-0.4 0-0.7 .1-0.9 .5c-0.2 .3-0.3 .8-0.3 1.4c0 .6 .1 1 .3 1.3c.2 .3 .5 .5 .9 .5Zm8.7-4.6v.7l-0.9 .1c.1 .1 .1 .3 .2 .4c.1 .2 .1 .4 .1 .6c0 .5-0.2 1-0.6 1.3c-0.4 .3-0.9 .5-1.6 .5c-0.2 0-0.3 0-0.5-0.1c-0.2 .2-0.3 .4-0.3 .6c0 .1 0 .2 .1 .2c.2 .1 .4 .1 .7 .1h.9c.6 0 1.1 .2 1.4 .4c.3 .3 .5 .6 .5 1.1c0 .6-0.3 1.1-0.8 1.4c-0.5 .4-1.2 .5-2.2 .5c-0.7 0-1.3-0.1-1.7-0.4c-0.4-0.2-0.6-0.6-0.6-1.1c0-0.3 .1-0.6 .4-0.8c.2-0.2 .5-0.4 .8-0.5c-0.1 0-0.2-0.1-0.3-0.3c-0.1-0.1-0.2-0.3-0.2-0.5c0-0.2 .1-0.3 .2-0.5c.1-0.1 .3-0.2 .5-0.4c-0.3-0.1-0.5-0.3-0.7-0.6c-0.2-0.2-0.3-0.6-0.3-0.9c0-0.6 .2-1.1 .6-1.4c.4-0.3 .9-0.5 1.6-0.5c.1 0 .3 0 .5 .1c.1 0 .3 0 .3 0h1.9Zm-4.2 6.3c0 .2 .1 .4 .3 .5c.2 .2 .5 .2 .9 .2c.7 0 1.1 0 1.4-0.2c.3-0.2 .5-0.4 .5-0.7c0-0.3-0.1-0.4-0.3-0.5c-0.1-0.1-0.4-0.2-0.9-0.2h-0.9c-0.3 0-0.5 .1-0.7 .2c-0.2 .2-0.3 .4-0.3 .7Zm.5-4.5c0 .3 0 .6 .2 .8c.2 .1 .4 .2 .8 .2c.6 0 1-0.3 1-1c0-0.4-0.1-0.7-0.3-0.8c-0.1-0.2-0.4-0.3-0.7-0.3c-0.4 0-0.6 .1-0.8 .3c-0.2 .1-0.2 .4-0.2 .8Zm7.1 3.7c-0.9 0-1.5-0.2-2-0.7c-0.5-0.5-0.7-1.2-0.7-2c0-0.9 .2-1.6 .7-2.1c.4-0.5 1-0.8 1.8-0.8c.7 0 1.2 .2 1.7 .7c.4 .4 .6 1 .6 1.8v.6h-3.6c0 .5 .1 .9 .4 1.2c.3 .3 .6 .4 1.1 .4c.3 0 .6 0 .9-0.1c.3 0 .6-0.1 .9-0.3v1c-0.3 .1-0.6 .2-0.8 .2c-0.3 .1-0.7 .1-1 .1Zm-0.2-4.7c-0.4 0-0.7 .1-0.9 .3c-0.2 .3-0.4 .6-0.4 1.1h2.4c0-0.5-0.1-0.8-0.3-1.1c-0.2-0.2-0.5-0.3-0.8-0.3Zm5.6 3.8c.3 0 .6 0 .8-0.1v.8c-0.1 .1-0.3 .1-0.5 .2c-0.2 0-0.4 0-0.6 0c-1.1 0-1.6-0.5-1.6-1.7v-2.9h-0.8v-0.5l.8-0.4l.4-1.2h.7v1.2h1.6v.9h-1.6v2.9c0 .3 .1 .5 .2 .6c.2 .1 .4 .2 .6 .2Z" fill="#000" fill-opacity=".9"/><path d="M60 8c0-1.4 1.2-2.6 2.6-2.6h45.8c1.4 0 2.5 1.2 2.5 2.6v6.7c0 1.4-1.1 2.6-2.5 2.6h-45.8c-1.4 0-2.6-1.2-2.6-2.6v-6.7Z" fill="#ffc000"/><path d="M66.8 13.2l-1.5-4.4h-0.1c.1 .7 .1 1.3 .1 1.9v2.5h-0.8v-5.2h1.2l1.5 4.1l1.5-4.1h1.2v5.2h-0.8v-2.6c0-0.2 0-0.6 0-1c0-0.4 0-0.7 0-0.8l-1.6 4.4h-0.7Zm6.1 0c-0.6 0-1.1-0.1-1.5-0.5c-0.3-0.3-0.5-0.8-0.5-1.5c0-0.6 .2-1.1 .5-1.5c.3-0.3 .8-0.5 1.3-0.5c.5 0 1 .1 1.3 .4c.3 .4 .4 .8 .4 1.3v.5h-2.6c0 .4 .1 .7 .3 .9c.2 .2 .5 .3 .8 .3c.2 0 .5 0 .7-0.1c.2 0 .4-0.1 .6-0.2v.7c-0.2 .1-0.4 .1-0.6 .2c-0.2 0-0.5 0-0.7 0Zm-0.2-3.4c-0.2 0-0.5 .1-0.6 .3c-0.2 .1-0.3 .4-0.3 .7h1.8c0-0.3-0.1-0.6-0.3-0.7c-0.1-0.2-0.3-0.3-0.6-0.3Zm4 3.4c-0.5 0-0.9-0.1-1.2-0.5c-0.2-0.3-0.4-0.8-0.4-1.5c0-0.6 .2-1.1 .4-1.5c.3-0.3 .7-0.5 1.2-0.5c.5 0 .9 .2 1.2 .5c0-0.2 0-0.5 0-0.6v-1.5h.8v5.6h-0.7l-0.1-0.5c-0.3 .4-0.7 .5-1.2 .5Zm.2-0.6c.3 0 .6-0.1 .7-0.3c.2-0.2 .3-0.5 .3-1v-0.1c0-0.5-0.1-0.8-0.3-1c-0.1-0.2-0.4-0.3-0.7-0.3c-0.3 0-0.5 .1-0.7 .3c-0.1 .3-0.2 .6-0.2 1c0 .5 .1 .8 .2 1c.2 .3 .4 .4 .7 .4Zm3.8 .6h-0.8v-4h.8v4Zm-0.9-5c0-0.1 .1-0.3 .2-0.3c0-0.1 .2-0.2 .3-0.2c.2 0 .3 .1 .3 .2c.1 0 .2 .2 .2 .3c0 .1-0.1 .3-0.2 .3c0 .1-0.1 .2-0.3 .2c-0.1 0-0.3-0.1-0.3-0.2c-0.1 0-0.2-0.2-0.2-0.3Zm4.9 5l-0.1-0.5h-0.1c-0.1 .1-0.3 .3-0.5 .4c-0.2 .1-0.4 .1-0.7 .1c-0.5 0-0.8-0.1-1.1-0.3c-0.2-0.2-0.3-0.6-0.3-1.1v-2.6h.8v2.5c0 .3 .1 .5 .2 .6c.1 .2 .3 .3 .6 .3c.3 0 .6-0.1 .8-0.3c.1-0.3 .2-0.6 .2-1.1v-2h.8v4h-0.6Zm5.1 0h-0.8v-2.4c0-0.3-0.1-0.6-0.2-0.7c-0.1-0.2-0.3-0.2-0.5-0.2c-0.3 0-0.6 .1-0.7 .3c-0.2 .2-0.2 .5-0.2 1v2h-0.9v-4h.7l.1 .6c.2-0.2 .3-0.4 .5-0.5c.2-0.1 .5-0.1 .7-0.1c.6 0 1 .2 1.2 .6h.1c.1-0.2 .2-0.4 .4-0.5c.3-0.1 .5-0.1 .8-0.1c.4 0 .8 .1 1 .3c.2 .3 .3 .6 .3 1.1v2.6h-0.8v-2.4c0-0.3-0.1-0.6-0.2-0.7c-0.1-0.2-0.3-0.2-0.5-0.2c-0.3 0-0.6 .1-0.7 .3c-0.2 .2-0.3 .5-0.3 .9v2.1Zm7.6-4c.1 0 .3 0 .4 0l-0.1 .8c-0.1 0-0.2-0.1-0.4-0.1c-0.3 0-0.6 .2-0.8 .4c-0.2 .2-0.3 .5-0.3 .8v2.1h-0.8v-4h.6l.1 .7h.1c.1-0.2 .3-0.4 .5-0.5c.2-0.2 .4-0.2 .7-0.2Zm1.9 4h-0.8v-4h.8v4Zm-0.8-5c0-0.1 0-0.3 .1-0.3c.1-0.1 .2-0.2 .3-0.2c.2 0 .3 .1 .4 .2c.1 0 .1 .2 .1 .3c0 .1 0 .3-0.1 .3c-0.1 .1-0.2 .2-0.4 .2c-0.1 0-0.2-0.1-0.3-0.2c-0.1 0-0.1-0.2-0.1-0.3Zm4.7 3.9c0 .3-0.2 .6-0.4 .8c-0.3 .2-0.7 .3-1.2 .3c-0.6 0-1 0-1.3-0.2v-0.7c.5 .2 .9 .3 1.3 .3c.5 0 .8-0.1 .8-0.5c0-0.1-0.1-0.1-0.1-0.2c-0.1-0.1-0.2-0.1-0.3-0.2c-0.1-0.1-0.3-0.2-0.5-0.3c-0.5-0.1-0.8-0.3-1-0.5c-0.1-0.2-0.2-0.4-0.2-0.7c0-0.3 .1-0.6 .4-0.7c.3-0.2 .6-0.3 1.1-0.3c.5 0 .9 .1 1.3 .3l-0.2 .6c-0.5-0.2-0.8-0.3-1.1-0.3c-0.5 0-0.7 .1-0.7 .4c0 .1 .1 .2 .2 .3c.1 .1 .4 .2 .7 .4c.4 .1 .6 .2 .8 .3c.1 .1 .2 .2 .3 .4c0 .1 .1 .3 .1 .5Zm1.7-1l.5-0.6l1.2-1.3h.9l-1.6 1.7l1.7 2.3h-1l-1.2-1.7l-0.5 .3v1.4h-0.8v-5.6h.8v2.7v.8Z" fill="#fff"/><path d="M11 24.3c.7 0 1.2 .2 1.6 .6c.4 .3 .6 .8 .6 1.3c0 .7-0.2 1.2-0.6 1.6c-0.4 .4-1 .6-1.8 .6c-0.7 0-1.3-0.1-1.7-0.4v-0.7c.2 .2 .5 .3 .8 .3c.3 .1 .6 .2 .9 .2c.5 0 .9-0.2 1.2-0.4c.3-0.3 .5-0.6 .5-1.1c0-0.9-0.6-1.3-1.7-1.3c-0.3 0-0.7 0-1.1 .1l-0.4-0.3l.2-3h3.3v.7h-2.6l-0.2 1.9c.3 0 .7-0.1 1-0.1Zm7.5 .8c0 1.1-0.2 1.9-0.5 2.5c-0.4 .5-0.9 .8-1.7 .8c-0.7 0-1.2-0.3-1.6-0.9c-0.3-0.5-0.5-1.4-0.5-2.5c0-1.1 .2-1.9 .5-2.5c.4-0.5 .9-0.8 1.6-0.8c.7 0 1.3 .3 1.6 .9c.4 .5 .6 1.4 .6 2.4Zm-3.6-0.1c0 1 .2 1.7 .4 2.1c.2 .4 .6 .7 1 .7c.5 0 .9-0.3 1.1-0.7c.2-0.4 .3-1.1 .3-2.1c0-0.9-0.1-1.6-0.3-2c-0.2-0.4-0.6-0.6-1.1-0.6c-0.4 0-0.8 .2-1 .6c-0.2 .4-0.4 1.1-0.4 2.1Zm5.1-1.3c0 .6 .1 .9 .2 1.2c.1 .2 .3 .4 .5 .4c.5 0 .8-0.5 .8-1.6c0-1-0.3-1.5-0.8-1.5c-0.2 0-0.4 .2-0.5 .4c-0.1 .3-0.2 .6-0.2 1.1Zm2.1 0c0 .7-0.2 1.2-0.4 1.6c-0.2 .3-0.5 .5-1 .5c-0.4 0-0.7-0.2-0.9-0.5c-0.3-0.4-0.4-0.9-0.4-1.6c0-0.6 .1-1.1 .3-1.5c.3-0.3 .6-0.5 1-0.5c.5 0 .8 .2 1 .5c.2 .4 .4 .9 .4 1.5Zm1.8 2.7c0 .5 .1 .8 .2 1.1c.1 .2 .3 .4 .5 .4c.3 0 .5-0.2 .6-0.4c.1-0.3 .2-0.6 .2-1.1c0-0.6-0.1-0.9-0.2-1.2c-0.1-0.2-0.3-0.3-0.6-0.3c-0.2 0-0.4 .1-0.5 .3c-0.1 .3-0.2 .6-0.2 1.2Zm2.1 0c0 .6-0.1 1.1-0.4 1.5c-0.2 .3-0.5 .5-1 .5c-0.4 0-0.7-0.2-0.9-0.5c-0.3-0.4-0.4-0.9-0.4-1.5c0-0.7 .1-1.2 .4-1.6c.2-0.3 .5-0.5 .9-0.5c.5 0 .8 .2 1 .5c.3 .4 .4 .9 .4 1.6Zm-1.2-4.6l-3.6 6.5h-0.6l3.6-6.5h.6Z" fill="#000" fill-opacity=".9"/><rect x="30.9" y="22.7" width="79.9" height="4.1" rx="1.1" fill="#000" fill-opacity=".04"/><rect x="30.9" y="22.7" width="39.1" height="4.5" rx="1.1" fill="#ffc000"/></g><g transform="translate(117.5,413.2) translate(-117.2,-54.7)" style="animation: 5s linear infinite both a2_t;"><rect width="234.4" height="109.4" rx="6.6" fill="#fff"/><path stroke="#ebedf5" stroke-width=".8" d="M14.7 68.3h204"/><path stroke="#ebedf5" stroke-width=".8" d="M14.7 51.3h204"/><path stroke="#ebedf5" stroke-width=".8" d="M65.3 85.7v-51"/><path stroke="#ebedf5" stroke-width=".8" d="M48.3 85.7v-51"/><path stroke="#ebedf5" stroke-width=".8" d="M31.3 85.7v-51"/><path stroke="#ebedf5" stroke-width=".8" d="M133.3 85.7v-51"/><path stroke="#ebedf5" stroke-width=".8" d="M201.3 85.7v-51"/><path stroke="#ebedf5" stroke-width=".8" d="M116.3 85.7v-51"/><path stroke="#ebedf5" stroke-width=".8" d="M184.3 85.7v-51"/><path stroke="#ebedf5" stroke-width=".8" d="M99.3 85.7v-51"/><path stroke="#ebedf5" stroke-width=".8" d="M167.3 85.7v-51"/><path stroke="#ebedf5" stroke-width=".8" d="M82.3 85.7v-51"/><path stroke="#ebedf5" stroke-width=".8" d="M150.3 85.7v-51"/><rect x="15.2" y="34.2" width="203" height="51" rx="3.5" stroke="#ebedf5"/><path d="M16 16.5h.9c.6 0 1-0.1 1.3-0.3c.3-0.3 .4-0.6 .4-1c0-0.5-0.1-0.8-0.4-1c-0.3-0.2-0.7-0.3-1.3-0.3h-0.9v2.6Zm0 1.1v3.1h-1.3v-7.9h2.3c1 0 1.7 .2 2.2 .6c.5 .4 .7 1 .7 1.7c0 1-0.5 1.7-1.5 2.1l2.2 3.5h-1.4l-1.9-3.1h-1.3Zm8.2 3.2c-0.9 0-1.6-0.3-2.1-0.8c-0.6-0.5-0.8-1.3-0.8-2.2c0-1 .2-1.8 .7-2.3c.5-0.6 1.2-0.8 2-0.8c.8 0 1.4 .2 1.9 .7c.4 .4 .6 1.1 .6 1.9v.7h-3.9c0 .6 .2 1 .5 1.3c.2 .4 .7 .5 1.2 .5c.3 0 .7 0 1-0.1c.3-0.1 .6-0.2 .9-0.3v1c-0.3 .2-0.6 .3-0.9 .3c-0.3 .1-0.7 .1-1.1 .1Zm-0.2-5.2c-0.4 0-0.7 .1-1 .4c-0.2 .2-0.3 .6-0.4 1.1h2.7c0-0.5-0.1-0.9-0.4-1.1c-0.2-0.3-0.5-0.4-0.9-0.4Zm8 3.4c0 .6-0.2 1-0.7 1.3c-0.4 .4-1 .5-1.8 .5c-0.8 0-1.4-0.1-1.9-0.4v-1c.7 .3 1.4 .4 2 .4c.7 0 1.1-0.2 1.1-0.7c0-0.1 0-0.2-0.1-0.3c-0.1-0.1-0.2-0.2-0.4-0.4c-0.2-0.1-0.5-0.2-0.8-0.3c-0.7-0.3-1.2-0.5-1.4-0.8c-0.3-0.3-0.4-0.6-0.4-1c0-0.6 .2-0.9 .6-1.2c.4-0.3 1-0.4 1.7-0.4c.7 0 1.3 .1 2 .4l-0.4 .9c-0.7-0.2-1.2-0.4-1.7-0.4c-0.6 0-1 .2-1 .6c0 .2 .1 .3 .3 .5c.2 .1 .6 .3 1.1 .5c.5 .2 .9 .4 1.1 .5c.2 .2 .4 .4 .5 .6c.1 .2 .2 .4 .2 .7Zm6.6-1.3c0 1-0.2 1.7-0.7 2.3c-0.5 .5-1.2 .8-2.1 .8c-0.6 0-1.1-0.1-1.5-0.4c-0.4-0.2-0.7-0.6-1-1c-0.2-0.5-0.3-1.1-0.3-1.7c0-0.9 .2-1.7 .7-2.2c.5-0.6 1.2-0.8 2.1-0.8c.9 0 1.6 .2 2.1 .8c.5 .5 .7 1.3 .7 2.2Zm-4.3 0c0 1.4 .5 2.1 1.5 2.1c1 0 1.5-0.7 1.5-2.1c0-1.3-0.5-2-1.5-2c-0.5 0-0.9 .2-1.2 .5c-0.2 .4-0.3 .9-0.3 1.5Zm10 3l-0.2-0.8h-0.1c-0.2 .3-0.4 .5-0.7 .7c-0.4 .1-0.7 .2-1.1 .2c-0.8 0-1.3-0.2-1.7-0.5c-0.3-0.4-0.5-0.9-0.5-1.7v-3.8h1.3v3.6c0 .5 .1 .8 .3 1c.1 .3 .4 .4 .8 .4c.6 0 1-0.2 1.2-0.5c.3-0.3 .4-0.8 .4-1.6v-2.9h1.2v5.9h-0.9Zm5.8-6c.2 0 .4 0 .6 0l-0.1 1.2c-0.2-0.1-0.4-0.1-0.6-0.1c-0.5 0-0.9 .2-1.2 .5c-0.3 .3-0.5 .8-0.5 1.3v3.1h-1.3v-5.9h1l.2 1h.1c.2-0.3 .4-0.6 .7-0.8c.3-0.2 .7-0.3 1.1-0.3Zm4.1 6.1c-0.9 0-1.6-0.3-2.1-0.8c-0.4-0.5-0.7-1.3-0.7-2.2c0-1 .3-1.8 .8-2.3c.5-0.6 1.2-0.8 2.1-0.8c.6 0 1.2 .1 1.7 .3l-0.4 1c-0.5-0.2-1-0.3-1.3-0.3c-1 0-1.6 .7-1.6 2.1c0 .6 .2 1.1 .4 1.5c.3 .3 .7 .5 1.1 .5c.6 0 1.1-0.2 1.6-0.5v1.1c-0.2 .2-0.4 .3-0.7 .3c-0.2 .1-0.5 .1-0.9 .1Zm5.6 0c-0.9 0-1.6-0.3-2.1-0.8c-0.6-0.5-0.8-1.3-0.8-2.2c0-1 .2-1.8 .7-2.3c.5-0.6 1.2-0.8 2-0.8c.8 0 1.4 .2 1.9 .7c.4 .4 .6 1.1 .6 1.9v.7h-3.9c0 .6 .2 1 .5 1.3c.2 .4 .7 .5 1.2 .5c.3 0 .7 0 1-0.1c.3-0.1 .6-0.2 .9-0.3v1c-0.3 .2-0.6 .3-0.9 .3c-0.3 .1-0.7 .1-1.1 .1Zm-0.2-5.2c-0.4 0-0.7 .1-1 .4c-0.2 .2-0.3 .6-0.4 1.1h2.7c0-0.5-0.1-0.9-0.4-1.1c-0.2-0.3-0.5-0.4-0.9-0.4Zm9.2 5.2c-0.9 0-1.6-0.3-2-0.8c-0.5-0.5-0.7-1.3-0.7-2.2c0-1 .2-1.8 .7-2.3c.5-0.6 1.2-0.8 2.1-0.8c.7 0 1.2 .1 1.7 .3l-0.4 1c-0.5-0.2-0.9-0.3-1.3-0.3c-1 0-1.5 .7-1.5 2.1c0 .6 .1 1.1 .4 1.5c.2 .3 .6 .5 1.1 .5c.6 0 1.1-0.2 1.6-0.5v1.1c-0.2 .2-0.5 .3-0.7 .3c-0.3 .1-0.6 .1-1 .1Zm6.8-0.1l-0.3-0.8c-0.3 .3-0.6 .6-0.9 .7c-0.3 .1-0.6 .2-1.1 .2c-0.6 0-1-0.2-1.4-0.5c-0.3-0.3-0.4-0.7-0.4-1.3c0-0.6 .2-1.1 .6-1.4c.5-0.3 1.2-0.5 2.1-0.5h1v-0.3c0-0.4 0-0.7-0.2-0.9c-0.2-0.2-0.5-0.3-0.8-0.3c-0.3 0-0.6 .1-0.9 .2c-0.3 0-0.6 .1-0.8 .3l-0.4-0.9c.3-0.2 .6-0.3 1-0.4c.4-0.1 .8-0.1 1.1-0.1c.8 0 1.3 .1 1.7 .4c.4 .4 .6 .9 .6 1.6v4h-0.9Zm-1.9-0.9c.5 0 .8-0.1 1.1-0.3c.3-0.3 .4-0.7 .4-1.1v-0.5h-0.7c-0.6 0-1.1 .1-1.3 .3c-0.3 .2-0.4 .4-0.4 .8c0 .3 .1 .5 .2 .6c.2 .2 .4 .2 .7 .2Zm7.6 1c-0.8 0-1.4-0.3-1.8-0.8h-0.1c.1 .5 .1 .8 .1 .9v2.4h-1.2v-8.5h1c0 .1 .1 .3 .2 .8c.4-0.6 1-0.9 1.8-0.9c.7 0 1.3 .2 1.7 .8c.4 .5 .6 1.2 .6 2.2c0 1-0.2 1.7-0.6 2.3c-0.4 .5-1 .8-1.7 .8Zm-0.3-5.1c-0.5 0-0.9 .1-1.1 .4c-0.3 .3-0.4 .8-0.4 1.4v.2c0 .7 .1 1.3 .4 1.6c.2 .3 .6 .5 1.1 .5c.4 0 .8-0.2 1-0.6c.2-0.3 .4-0.8 .4-1.5c0-0.7-0.2-1.2-0.4-1.5c-0.2-0.3-0.6-0.5-1-0.5Zm7.8 5l-0.2-0.8h-0.1c-0.3 .3-0.5 .6-0.8 .7c-0.3 .1-0.7 .2-1.1 .2c-0.6 0-1.1-0.2-1.4-0.5c-0.3-0.3-0.5-0.7-0.5-1.3c0-0.6 .2-1.1 .7-1.4c.4-0.3 1.1-0.5 2.1-0.5h1v-0.3c0-0.4-0.1-0.7-0.3-0.9c-0.2-0.2-0.4-0.3-0.8-0.3c-0.3 0-0.6 .1-0.9 .2c-0.3 0-0.5 .1-0.8 .3l-0.4-0.9c.3-0.2 .7-0.3 1.1-0.4c.3-0.1 .7-0.1 1-0.1c.8 0 1.4 .1 1.8 .4c.3 .4 .5 .9 .5 1.6v4h-0.9Zm-1.8-0.9c.4 0 .8-0.1 1.1-0.3c.2-0.3 .4-0.7 .4-1.1v-0.5h-0.8c-0.6 0-1 .1-1.3 .3c-0.3 .2-0.4 .4-0.4 .8c0 .3 .1 .5 .2 .6c.2 .2 .4 .2 .8 .2Zm6.9 1c-0.9 0-1.6-0.3-2.1-0.8c-0.4-0.5-0.7-1.3-0.7-2.2c0-1 .3-1.8 .8-2.3c.5-0.6 1.2-0.8 2.1-0.8c.6 0 1.2 .1 1.7 .3l-0.4 1c-0.5-0.2-1-0.3-1.3-0.3c-1 0-1.6 .7-1.6 2.1c0 .6 .2 1.1 .4 1.5c.3 .3 .7 .5 1.1 .5c.6 0 1.1-0.2 1.6-0.5v1.1c-0.2 .2-0.4 .3-0.7 .3c-0.2 .1-0.5 .1-0.9 .1Zm4.3-0.1h-1.3v-5.9h1.3v5.9Zm-1.3-7.5c0-0.2 0-0.4 .1-0.5c.2-0.2 .4-0.2 .6-0.2c.2 0 .4 0 .5 .2c.1 .1 .2 .3 .2 .5c0 .2-0.1 .4-0.2 .5c-0.1 .1-0.3 .2-0.5 .2c-0.2 0-0.4-0.1-0.6-0.2c-0.1-0.1-0.1-0.3-0.1-0.5Zm5.3 6.6c.3 0 .6-0.1 1-0.2v1c-0.2 .1-0.4 .1-0.6 .1c-0.2 .1-0.4 .1-0.7 .1c-1.2 0-1.8-0.6-1.8-1.9v-3.2h-0.8v-0.5l.9-0.5l.4-1.3h.8v1.4h1.7v.9h-1.7v3.2c0 .3 .1 .5 .2 .7c.2 .1 .4 .2 .6 .2Zm1.2-5h1.4l1.2 3.3c.2 .5 .3 1 .4 1.4c.1-0.2 .1-0.5 .2-0.7c.1-0.3 .5-1.7 1.4-4h1.3l-2.5 6.7c-0.5 1.2-1.2 1.8-2.3 1.8c-0.3 0-0.6 0-0.8 0v-1c.2 0 .4 0 .6 0c.6 0 1.1-0.3 1.3-1l.2-0.6l-2.4-5.9Z" fill="#181f38"/><ellipse cx="210.7" cy="15.9" fill="#c1c9d8" rx="1.9" ry="1.9"/><ellipse cx="215.8" cy="15.9" fill="#c1c9d8" rx="1.9" ry="1.9"/><ellipse cx="221" cy="15.9" fill="#c1c9d8" rx="1.9" ry="1.9"/><ellipse cx="40.7" cy="96.7" fill="#08cf65" rx="1.9" ry="1.9"/><rect x="43.7" y="94.7" width="20" height="4" rx="2" fill="#ebedf5"/><ellipse cx="73.7" cy="96.7" fill="#9ad3ff" rx="1.9" ry="1.9"/><rect x="76.7" y="94.7" width="20" height="4" rx="2" fill="#ebedf5"/><ellipse cx="106.7" cy="96.7" fill="#ffdc75" rx="1.9" ry="1.9"/><rect x="109.7" y="94.7" width="20" height="4" rx="2" fill="#ebedf5"/><ellipse cx="139.7" cy="96.7" fill="#d2c2ff" rx="1.9" ry="1.9"/><rect x="142.7" y="94.7" width="20" height="4" rx="2" fill="#ebedf5"/><ellipse cx="172.7" cy="96.7" fill="#ffbdc7" rx="1.9" ry="1.9"/><rect x="175.7" y="94.7" width="20" height="4" rx="2" fill="#ebedf5"/><rect x="36.7" y="51.7" width="24" height="34" rx="2" fill="#8cf09b"/><path d="M44.3 46.7v-5.8h-0.1l-1.8 1.2v-1.2l1.9-1.2h1.2v7h-1.2Zm6.7 0v-5.8h-0.1l-1.7 1.2v-1.2l1.8-1.2h1.3v7h-1.3Z" fill="#181f38"/><rect x="70.7" y="56.7" width="24" height="29" rx="2" fill="#9ad3ff"/><rect x="70.7" y="56.7" width="24" height="29" rx="2" fill="#9ad3ff"/><path d="M78.3 51.7v-5.8h-0.1l-1.8 1.2v-1.2l1.9-1.2h1.2v7h-1.2Zm6.8 .2c-1.7 0-2.8-1.5-2.8-3.7c0-2.3 1.1-3.7 2.8-3.7c1.7 0 2.8 1.4 2.8 3.7c0 2.2-1.1 3.7-2.8 3.7Zm0-1.1c.9 0 1.5-1 1.5-2.6c0-1.7-0.6-2.7-1.5-2.7c-0.9 0-1.6 1-1.6 2.7c0 1.6 .6 2.6 1.6 2.6Z" fill="#181f38"/><rect x="103.7" y="64.7" width="27" height="21" rx="2" fill="#ffdc75"/><path d="M116.7 60.4c-1.6 0-2.7-0.9-2.7-2.1c0-0.9 .6-1.6 1.5-1.8v-0.1c-0.8-0.2-1.3-0.8-1.3-1.5c0-1.1 1.1-1.9 2.5-1.9c1.4 0 2.4 .8 2.4 1.9c0 .7-0.4 1.3-1.2 1.5v.1c.9 .2 1.5 .9 1.5 1.8c0 1.2-1.1 2.1-2.7 2.1Zm0-4.3c.7 0 1.2-0.5 1.2-1.1c0-0.6-0.5-1.1-1.2-1.1c-0.7 0-1.2 .5-1.2 1.1c0 .6 .5 1.1 1.2 1.1Zm0 3.3c.8 0 1.4-0.5 1.4-1.2c0-0.7-0.6-1.2-1.4-1.2c-0.9 0-1.4 .5-1.4 1.2c0 .7 .5 1.2 1.4 1.2Z" fill="#181f38"/><rect x="138.7" y="70.7" width="24" height="15" rx="2" fill="#d2c2ff"/><path d="M149.7 66.4c-1.5 0-2.5-0.9-2.5-2.1h1.2c0 .6 .6 1.1 1.3 1.1c.8 0 1.3-0.6 1.3-1.5c0-0.8-0.5-1.4-1.3-1.4c-0.6 0-1 .3-1.3 .8h-1.1l.4-4.1h4.2v1h-3.3l-0.2 2h.1c.3-0.4 .9-0.6 1.6-0.6c1.2 0 2.2 .9 2.2 2.3c0 1.5-1.1 2.5-2.6 2.5Z" fill="#181f38"/><rect x="172.7" y="76.7" width="24" height="9" rx="2" fill="#ffbdc7"/><path d="M182.7 69.1v-1h.9c.7 0 1.2-0.4 1.2-1.1c0-0.6-0.4-1-1.2-1c-0.7 0-1.2 .4-1.3 1.1h-1.1c0-1.3 1-2.1 2.5-2.1c1.5 0 2.3 .9 2.3 1.9c0 .8-0.5 1.4-1.2 1.6v.1c.9 .1 1.5 .7 1.5 1.7c0 1.2-1.1 2.1-2.6 2.1c-1.6 0-2.6-0.9-2.7-2.1h1.2c.1 .6 .6 1 1.4 1c.9 0 1.4-0.4 1.4-1.1c0-0.7-0.5-1.1-1.4-1.1h-0.9Z" fill="#181f38"/><rect width="234.4" height="109.4" rx="6.6" stroke="#ebedf5" stroke-width="0"/></g></svg>