<svg width="64" height="64" viewBox="0 0 64 64" fill="none" xmlns="http://www.w3.org/2000/svg">
<path d="M5 15C5 11.6863 7.68629 9 11 9H53C56.3137 9 59 11.6863 59 15V47H5V15Z" fill="#08CF65"/>
<path d="M0 47H64C64 50.3137 61.3137 53 58 53H6C2.68629 53 0 50.3137 0 47Z" fill="#04454D"/>
<rect x="11" y="19" width="20" height="20" rx="4" fill="white"/>
<rect x="36" y="20" width="16" height="6" rx="2" stroke="white" stroke-width="2"/>
<rect x="36" y="30" width="16" height="8" rx="2" stroke="white" stroke-width="2"/>
<g clip-path="url(#clip0_4232_11119)">
<path d="M17.2837 28.2384C17.9615 28.2384 18.2809 28.3635 18.7717 28.8563L21.4051 31.5002C21.483 31.5785 21.4986 31.6098 21.5142 31.6567C21.522 31.6723 21.522 31.6958 21.522 31.7114C21.522 31.7271 21.522 31.7506 21.5142 31.7662C21.4986 31.8131 21.483 31.8444 21.4051 31.9226L19.6054 33.7374C19.5275 33.8156 19.4963 33.8313 19.4496 33.8469C19.434 33.8547 19.4106 33.8547 19.395 33.8547C19.3795 33.8547 19.3561 33.8547 19.3405 33.8469C19.2938 33.8313 19.2626 33.8156 19.1847 33.7374L14.0815 28.6139C13.9335 28.4652 13.988 28.2384 14.2373 28.2384H17.2837Z" fill="#04454D"/>
<path d="M24.7163 25C24.0385 25 23.7191 25.133 23.2282 25.6258L20.5949 28.2697C20.517 28.3479 20.5014 28.3792 20.4858 28.4261C20.478 28.4418 20.478 28.4652 20.478 28.4809C20.478 28.4965 20.478 28.52 20.4858 28.5356C20.5014 28.5826 20.517 28.6139 20.5949 28.6921L22.3946 30.499C22.4725 30.5772 22.5037 30.5929 22.5504 30.6085C22.566 30.6163 22.5894 30.6163 22.605 30.6163C22.6205 30.6163 22.6439 30.6163 22.6595 30.6085C22.7062 30.5929 22.7374 30.5772 22.8153 30.499L27.9185 25.3755C28.0665 25.2268 28.012 25 27.7627 25H24.7163Z" fill="#04454D"/>
</g>
<defs>
<clipPath id="clip0_4232_11119">
<rect width="14" height="8.925" fill="white" transform="translate(14 25)"/>
</clipPath>
</defs>
</svg>
