<svg width="64" height="64" viewBox="0 0 64 64" fill="none" xmlns="http://www.w3.org/2000/svg">
<path d="M23.5 54.08L35.31 12.06" stroke="#04454D" stroke-width="2" stroke-miterlimit="10"/>
<path d="M54.81 23.76L13.2 33.92" stroke="#04454D" stroke-width="2" stroke-miterlimit="10"/>
<path d="M43.59 43.03L13.2 12.64" stroke="#04454D" stroke-width="2" stroke-miterlimit="10"/>
<path d="M10.53 16.33C14.9538 16.33 18.54 12.7438 18.54 8.32C18.54 3.8962 14.9538 0.309998 10.53 0.309998C6.1062 0.309998 2.52 3.8962 2.52 8.32C2.52 12.7438 6.1062 16.33 10.53 16.33Z" fill="#08CF65"/>
<path d="M49.25 59.38C54.4139 59.38 58.6 55.1939 58.6 50.03C58.6 44.8661 54.4139 40.68 49.25 40.68C44.0861 40.68 39.9 44.8661 39.9 50.03C39.9 55.1939 44.0861 59.38 49.25 59.38Z" fill="#04454D"/>
<path d="M22.54 63.6C25.4892 63.6 27.88 61.2092 27.88 58.26C27.88 55.3108 25.4892 52.92 22.54 52.92C19.5908 52.92 17.2 55.3108 17.2 58.26C17.2 61.2092 19.5908 63.6 22.54 63.6Z" fill="#08CF65"/>
<path d="M58.82 26.57C61.0347 26.57 62.83 24.7746 62.83 22.56C62.83 20.3453 61.0347 18.55 58.82 18.55C56.6053 18.55 54.81 20.3453 54.81 22.56C54.81 24.7746 56.6053 26.57 58.82 26.57Z" stroke="#08CF65" stroke-width="2" stroke-miterlimit="10"/>
<path d="M36.57 12.63C39.1492 12.63 41.24 10.5392 41.24 7.96001C41.24 5.38084 39.1492 3.29001 36.57 3.29001C33.9908 3.29001 31.9 5.38084 31.9 7.96001C31.9 10.5392 33.9908 12.63 36.57 12.63Z" fill="#04454D"/>
<path d="M7.06 41.28C10.3792 41.28 13.07 38.5892 13.07 35.27C13.07 31.9508 10.3792 29.26 7.06 29.26C3.74077 29.26 1.05 31.9508 1.05 35.27C1.05 38.5892 3.74077 41.28 7.06 41.28Z" stroke="#04454D" stroke-width="2" stroke-miterlimit="10"/>
<path d="M31.22 44.68C38.963 44.68 45.24 38.403 45.24 30.66C45.24 22.917 38.963 16.64 31.22 16.64C23.477 16.64 17.2 22.917 17.2 30.66C17.2 38.403 23.477 44.68 31.22 44.68Z" fill="#08CF65"/>
<path d="M27.64 29.74C27.9595 29.7134 28.2808 29.764 28.5766 29.8876C28.8725 30.0111 29.1343 30.204 29.34 30.45L32.34 33.45C32.43 33.54 32.45 33.58 32.46 33.63C32.4655 33.653 32.4655 33.677 32.46 33.7C32.4647 33.7197 32.4647 33.7403 32.46 33.76C32.46 33.76 32.46 33.85 32.34 33.94L30.3 36C30.21 36.09 30.17 36.11 30.12 36.12H30C30 36.12 29.91 36.12 29.82 36L24 30.17C23.9582 30.1383 23.9279 30.0939 23.9138 30.0434C23.8997 29.9929 23.9024 29.9392 23.9217 29.8904C23.941 29.8417 23.9757 29.8006 24.0205 29.7734C24.0654 29.7462 24.1179 29.7345 24.17 29.74H27.64Z" fill="white"/>
<path d="M36.14 26.07C35.8213 26.0422 35.5006 26.0913 35.2048 26.2131C34.909 26.3349 34.6467 26.5259 34.44 26.77L31.44 29.77C31.3817 29.8134 31.3366 29.8723 31.31 29.94V30.07C31.3383 30.1395 31.3829 30.2012 31.44 30.25L33.5 32.31C33.59 32.4 33.63 32.42 33.68 32.43H33.81C33.86 32.43 33.9 32.43 33.98 32.31L39.82 26.48C39.99 26.3 39.93 26.05 39.64 26.05L36.14 26.07Z" fill="white"/>
</svg>
