<svg width="64" height="64" viewBox="0 0 64 64" fill="none" xmlns="http://www.w3.org/2000/svg">
<path d="M4 18H60V52C60 55.3137 57.3137 58 54 58H10C6.68629 58 4 55.3137 4 52V18Z" fill="#08CF65"/>
<path d="M4 16C4 12.6863 6.68629 10 10 10H54C57.3137 10 60 12.6863 60 16V20H4V16Z" fill="#04454D"/>
<rect x="11" y="25" width="10" height="8" rx="1" fill="white"/>
<rect x="25" y="34" width="16" height="8" rx="1" fill="white"/>
<rect x="48.9497" y="42" width="7" height="7" rx="1" transform="rotate(45 48.9497 42)" fill="#04454D"/>
<rect x="15" y="5" width="4" height="8" rx="2" fill="#04454D"/>
<rect x="45" y="5" width="4" height="8" rx="2" fill="#04454D"/>
<path d="M21 29H24C25.6569 29 27 30.3431 27 32V34" stroke="#04454D" stroke-width="2"/>
<path d="M41 38H46C47.6569 38 49 39.3431 49 41V44" stroke="#04454D" stroke-width="2"/>
</svg>
