<svg width="64" height="64" viewBox="0 0 64 64" fill="none" xmlns="http://www.w3.org/2000/svg">
<g clip-path="url(#clip0_4232_11117)">
<path d="M57.07 3.28003H30.15C28.5587 3.28003 27.0326 3.91217 25.9074 5.03739C24.7822 6.16261 24.15 7.68873 24.15 9.28003V25.46C24.15 27.0513 24.7822 28.5775 25.9074 29.7027C27.0326 30.8279 28.5587 31.46 30.15 31.46H48.31L57.7 40.86V31.46C58.4048 31.4613 59.1028 31.3237 59.7543 31.0549C60.4057 30.7861 60.9978 30.3915 61.4966 29.8937C61.9954 29.3958 62.3911 28.8045 62.6611 28.1535C62.9311 27.5026 63.07 26.8048 63.07 26.1V9.28003C63.07 7.68873 62.4379 6.16261 61.3127 5.03739C60.1874 3.91217 58.6613 3.28003 57.07 3.28003V3.28003Z" stroke="#04454D" stroke-width="2" stroke-miterlimit="10"/>
<path d="M35.56 19.3801C36.6701 19.3801 37.57 18.4802 37.57 17.3701C37.57 16.26 36.6701 15.3601 35.56 15.3601C34.4499 15.3601 33.55 16.26 33.55 17.3701C33.55 18.4802 34.4499 19.3801 35.56 19.3801Z" fill="#04454D"/>
<path d="M43.61 19.3801C44.7201 19.3801 45.62 18.4802 45.62 17.3701C45.62 16.26 44.7201 15.3601 43.61 15.3601C42.4999 15.3601 41.6 16.26 41.6 17.3701C41.6 18.4802 42.4999 19.3801 43.61 19.3801Z" fill="#04454D"/>
<path d="M51.66 19.3801C52.7701 19.3801 53.67 18.4802 53.67 17.3701C53.67 16.26 52.7701 15.3601 51.66 15.3601C50.5499 15.3601 49.65 16.26 49.65 17.3701C49.65 18.4802 50.5499 19.3801 51.66 19.3801Z" fill="#04454D"/>
<path d="M43.16 32.4301V31.5701C43.16 29.9788 42.5278 28.4526 41.4026 27.3274C40.2774 26.2022 38.7513 25.5701 37.16 25.5701H31.61V32.4301H43.16Z" fill="#04454D"/>
<path fill-rule="evenodd" clip-rule="evenodd" d="M6 23.1401H32.92C36.2337 23.1401 38.92 25.8264 38.92 29.1401V45.3201C38.92 48.6338 36.2337 51.3201 32.92 51.3201H14.77L5.37012 60.72V51.2875C2.35246 50.9727 0 48.4211 0 45.3201V29.1401C0 25.8264 2.68629 23.1401 6 23.1401Z" fill="#08CF65"/>
<path d="M14.69 36C15.0789 35.9649 15.4705 36.0249 15.8311 36.1747C16.1916 36.3245 16.5104 36.5597 16.76 36.86L20.44 40.54C20.5093 40.5981 20.5612 40.6742 20.59 40.76C20.5957 40.7863 20.5957 40.8136 20.59 40.84C20.5948 40.8631 20.5948 40.8869 20.59 40.91C20.5639 40.997 20.5115 41.0739 20.44 41.13L17.92 43.65C17.867 43.7203 17.7937 43.7727 17.71 43.8H17.55C17.4642 43.7712 17.3881 43.7193 17.33 43.65L10.21 36.52C9.99998 36.31 10.07 36 10.42 36H14.69Z" fill="white"/>
<path d="M25.06 31.55C24.6711 31.515 24.2795 31.5749 23.919 31.7247C23.5584 31.8745 23.2396 32.1097 22.99 32.41L19.31 36.09C19.2 36.2 19.17 36.25 19.16 36.31C19.1543 36.3364 19.1543 36.3637 19.16 36.39C19.1552 36.4131 19.1552 36.4369 19.16 36.46C19.16 36.53 19.16 36.57 19.31 36.68L21.82 39.2C21.8781 39.2694 21.9542 39.3213 22.04 39.35H22.2C22.2858 39.3213 22.3619 39.2694 22.42 39.2L29.54 32.07C29.5928 32.0315 29.631 31.9762 29.6484 31.9132C29.6659 31.8501 29.6615 31.7831 29.636 31.7229C29.6105 31.6627 29.5655 31.6128 29.5081 31.5814C29.4507 31.5501 29.3845 31.539 29.32 31.55H25.06Z" fill="white"/>
</g>
<defs>
<clipPath id="clip0_4232_11117">
<rect width="64" height="64" fill="white"/>
</clipPath>
</defs>
</svg>
