<svg width="32" height="32" viewBox="0 0 32 32" fill="none" xmlns="http://www.w3.org/2000/svg">
<g clip-path="url(#clip0_3274_7628)">
<circle cx="16" cy="16" r="16" fill="#F7761E"/>
<path d="M22.3127 13.4962V10.8981C22.656 10.7376 22.9467 10.4829 23.1509 10.1637C23.3552 9.84443 23.4645 9.47375 23.4663 9.09478V9.03511C23.4663 7.93015 22.5705 7.0344 21.4655 7.0344H21.4059C20.8753 7.0344 20.3664 7.24519 19.9912 7.6204C19.616 7.9956 19.4052 8.50449 19.4052 9.03511V9.09478C19.4069 9.47375 19.5163 9.84443 19.7205 10.1637C19.9247 10.4829 20.2154 10.7376 20.5588 10.8981V13.4962C19.572 13.6473 18.6427 14.0564 17.8649 14.6822L10.7394 9.13234C10.7902 8.94892 10.8167 8.76034 10.8197 8.57103C10.8206 8.12514 10.6892 7.68902 10.4421 7.31782C10.1951 6.94661 9.84356 6.65701 9.43193 6.48564C9.02029 6.31427 8.56707 6.26882 8.12961 6.35506C7.69215 6.4413 7.29008 6.65534 6.97428 6.97011C6.65848 7.28488 6.44313 7.68624 6.35546 8.12342C6.26779 8.5606 6.31176 9.01396 6.48178 9.42615C6.65181 9.83835 6.94026 10.1909 7.31065 10.4391C7.68104 10.6873 8.11674 10.8201 8.56262 10.8207C8.95271 10.8189 9.33549 10.7147 9.67274 10.5187L16.6892 15.9786C16.0589 16.9309 15.73 18.0509 15.7455 19.1927C15.7611 20.3346 16.1202 21.4453 16.7761 22.38L14.6421 24.5148C14.4696 24.4596 14.2899 24.4303 14.1088 24.4279C13.7428 24.4282 13.3851 24.5369 13.0809 24.7405C12.7767 24.944 12.5396 25.2331 12.3997 25.5713C12.2598 25.9095 12.2232 26.2816 12.2947 26.6405C12.3662 26.9995 12.5425 27.3292 12.8013 27.588C13.0601 27.8468 13.3898 28.0231 13.7487 28.0946C14.1077 28.166 14.4798 28.1295 14.818 27.9896C15.1562 27.8496 15.4453 27.6126 15.6488 27.3084C15.8523 27.0042 15.9611 26.6465 15.9614 26.2805C15.959 26.0994 15.9297 25.9197 15.8745 25.7472L17.9857 23.6352C18.6741 24.1653 19.4748 24.5307 20.3262 24.7035C21.1777 24.8762 22.0574 24.8518 22.898 24.6321C23.7386 24.4124 24.5178 24.0032 25.1758 23.4358C25.8338 22.8685 26.3532 22.158 26.6943 21.3589C27.0353 20.5598 27.1889 19.6933 27.1433 18.8256C27.0977 17.958 26.8541 17.1123 26.4311 16.3533C26.0082 15.5944 25.4172 14.9423 24.7033 14.4471C23.9894 13.9518 23.1717 13.6266 22.3127 13.4962V13.4962ZM21.4376 22.0412C21.0474 22.0519 20.659 21.9843 20.2954 21.8424C19.9318 21.7005 19.6003 21.4872 19.3205 21.215C19.0408 20.9428 18.8184 20.6173 18.6665 20.2578C18.5147 19.8982 18.4365 19.5118 18.4365 19.1215C18.4365 18.7312 18.5147 18.3448 18.6665 17.9852C18.8184 17.6257 19.0408 17.3002 19.3205 17.028C19.6003 16.7558 19.9318 16.5425 20.2954 16.4006C20.659 16.2587 21.0474 16.1911 21.4376 16.2018C22.1938 16.2283 22.9102 16.5473 23.4359 17.0915C23.9617 17.6357 24.2557 18.3627 24.2561 19.1193C24.2565 19.876 23.9632 20.6033 23.438 21.1481C22.9128 21.6928 22.1967 22.0124 21.4405 22.0397" fill="white"/>
</g>
<defs>
<clipPath id="clip0_3274_7628">
<rect width="32" height="32" fill="white"/>
</clipPath>
</defs>
</svg>
