<svg width="32" height="32" viewBox="0 0 32 32" fill="none" xmlns="http://www.w3.org/2000/svg">
<path d="M26.9931 23.8832L31.769 10.6485C32.4873 8.65806 31.4705 6.45751 29.4975 5.73447C27.5245 5.00978 25.3432 6.0356 24.6264 8.02602L23.4062 11.4096L26.9784 21.3104C27.29 22.1741 27.2736 23.0775 26.9948 23.8832H26.9931Z" fill="#D93367"/>
<path d="M26.9759 21.3104L23.4038 11.4096L22.1836 8.02602C21.4652 6.0356 19.2839 5.00978 17.3125 5.73447C15.3395 6.45916 14.3227 8.65971 15.041 10.6485L19.8333 23.9329C20.5517 25.9233 22.733 26.9491 24.7044 26.2244C25.7983 25.8223 26.597 24.9653 26.9709 23.9428C26.9726 23.9362 26.9759 23.9312 26.9775 23.9246L26.9923 23.8816C27.2711 23.0759 27.2875 22.1724 26.9759 21.3088V21.3104Z" fill="#2071EB"/>
<path d="M5.0064 8.0752L0.230484 21.31C-0.48787 23.3004 0.528978 25.5009 2.502 26.2239C4.47501 26.9486 6.65631 25.9228 7.37303 23.9324L8.59321 20.5489L5.0228 10.648C4.71118 9.78434 4.72758 8.88096 5.0064 8.0752Z" fill="#06275E"/>
<path d="M5.02453 10.6483L8.5966 20.5491L9.81687 23.9327C10.5352 25.9231 12.7165 26.949 14.6879 26.2243C16.6609 25.4995 17.6778 23.299 16.9594 21.3102L12.1687 8.0242C11.4504 6.03543 9.26912 5.00961 7.29604 5.73265C6.20211 6.13471 5.40339 6.99176 5.02945 8.01428C5.02781 8.02089 5.02453 8.02586 5.02289 8.03247L5.00813 8.0755C4.72932 8.88126 4.71292 9.78465 5.02453 10.6483Z" fill="#2071EB"/>
</svg>
