<svg width="32" height="32" viewBox="0 0 32 32" fill="none" xmlns="http://www.w3.org/2000/svg">
<g clip-path="url(#clip0_3274_7762)">
<path d="M16 32C24.8366 32 32 24.8366 32 16C32 7.16344 24.8366 0 16 0C7.16344 0 0 7.16344 0 16C0 24.8366 7.16344 32 16 32Z" fill="#1F1F1F"/>
<path d="M15.2395 10.9536H13.1693C13.0129 10.9538 12.8629 11.016 12.7524 11.1266C12.6418 11.2372 12.5796 11.3871 12.5793 11.5435V14.1974C12.5796 14.3538 12.6418 14.5037 12.7524 14.6143C12.8629 14.7249 13.0129 14.7871 13.1693 14.7873H15.2395V21.4736C15.2397 21.63 15.3019 21.78 15.4125 21.8906C15.5231 22.0012 15.673 22.0634 15.8294 22.0636H18.4833C18.6397 22.0634 18.7896 22.0012 18.9002 21.8906C19.0108 21.78 19.073 21.63 19.0732 21.4736V11.5435C19.073 11.3871 19.0108 11.2372 18.9002 11.1266C18.7896 11.016 18.6397 10.9538 18.4833 10.9536H15.2395Z" fill="white"/>
</g>
<defs>
<clipPath id="clip0_3274_7762">
<rect width="32" height="32" fill="white"/>
</clipPath>
</defs>
</svg>
