<svg width="32" height="32" viewBox="0 0 32 32" fill="none" xmlns="http://www.w3.org/2000/svg">
<path d="M31.9783 16.6046C31.979 16.4843 31.9484 16.3658 31.8897 16.2609C31.8309 16.156 31.746 16.0682 31.6432 16.0061L31.6397 16.0038L31.6263 15.9962L20.7277 9.59369C20.6807 9.56216 20.632 9.53334 20.5817 9.50736C20.3742 9.40083 20.1443 9.34528 19.9112 9.34528C19.678 9.34528 19.4482 9.40083 19.2406 9.50736C19.1903 9.53333 19.1416 9.56216 19.0946 9.59369L8.19605 15.9962L8.18267 16.0038L8.17918 16.0061C8.07533 16.0696 7.98977 16.1591 7.93096 16.2658C7.87215 16.3725 7.84212 16.4928 7.84382 16.6147C7.84552 16.7366 7.87891 16.8559 7.94068 16.961C8.00245 17.066 8.09047 17.1531 8.19605 17.2136L19.0946 23.6155C19.1414 23.647 19.19 23.6758 19.24 23.7018H19.2406C19.4481 23.8083 19.6778 23.8638 19.9109 23.8638C20.1439 23.8638 20.3737 23.8083 20.5811 23.7018C20.6316 23.6758 20.6805 23.647 20.7277 23.6155L31.6263 17.213C31.7337 17.1522 31.8229 17.0638 31.8848 16.9568C31.9467 16.8498 31.979 16.7282 31.9783 16.6046V16.6046Z" fill="#123B6D"/>
<path d="M9.05117 12.3703H16.2913V19.0242H9.05117V12.3703Z" fill="#0364B8"/>
<path d="M30.8367 6.08328V3.36094C30.8351 3.18061 30.7981 3.00237 30.7278 2.83639C30.6574 2.6704 30.5552 2.51993 30.4269 2.39356C30.2986 2.26719 30.1467 2.16739 29.9799 2.09988C29.8131 2.03236 29.6347 1.99844 29.4549 2.00006H10.1095C9.92969 1.99844 9.75127 2.03236 9.58449 2.09988C9.4177 2.16739 9.26582 2.26719 9.1375 2.39356C9.00919 2.51993 8.90696 2.6704 8.83665 2.83639C8.76634 3.00237 8.72933 3.18061 8.72774 3.36094V6.08328H30.8367Z" fill="#0358A7"/>
<path d="M8.72774 5.5H16.2913V12.4998H8.72774V5.5Z" fill="#0078D4"/>
<path d="M16.2908 5.5H23.8544L30.8362 12.4998V19.4996H23.8544L16.2908 12.4998V5.5Z" fill="#28A8EA"/>
<path d="M23.8545 5.5H30.8363V12.4998H23.8545V5.5Z" fill="#50D9FF"/>
<path d="M16.2908 12.4998H23.8544V19.4996H16.2908V12.4998Z" fill="#0078D4"/>
<path d="M16.2908 19.4997H23.8544V26.4995H16.2908V19.4997Z" fill="#0364B8"/>
<path d="M9.05117 19.0241H16.2913V25.0731H9.05117V19.0241Z" fill="#14447D"/>
<path d="M23.8545 19.4997H30.8363V25.9162H23.8545V19.4997Z" fill="#0078D4"/>
<path d="M31.6603 17.1354V17.136L31.6475 17.1436L31.644 17.1453L20.6081 23.0619C20.5603 23.0909 20.511 23.1174 20.4604 23.1412C20.2479 23.2404 20.0163 23.2915 19.782 23.2912C19.7686 23.2912 19.7564 23.2871 19.743 23.2871L19.1239 22.9464C19.0732 22.922 19.0239 22.8947 18.9761 22.8648L7.9211 16.7796L7.91761 16.7778L7.91179 16.7749L7.56387 16.583V28.562C7.57678 28.9555 7.74482 29.3278 8.03112 29.5972C8.31743 29.8667 8.69863 30.0113 9.09113 29.9993H30.5141C30.8378 30.0004 31.1537 29.9005 31.4182 29.7135L31.395 29.7007C31.5793 29.5733 31.7305 29.4033 31.8358 29.2052C31.9411 29.0071 31.9974 28.7865 32.0001 28.562V16.583C31.9986 16.6973 31.9662 16.809 31.9063 16.9063C31.8465 17.0036 31.7615 17.0828 31.6603 17.1354Z" fill="url(#paint0_linear_3274_7724)"/>
<path d="M31.6609 17.136L31.6469 17.1436L31.644 17.1453L20.6081 23.0619C20.5603 23.091 20.511 23.1175 20.4604 23.1413C20.2475 23.24 20.0159 23.2911 19.7814 23.2911C19.5469 23.2911 19.3152 23.24 19.1024 23.1413C19.0518 23.1175 19.0024 23.091 18.9546 23.0619L7.92052 17.1453L7.91703 17.1436L7.90364 17.136C7.80242 17.0832 7.71736 17.004 7.65753 16.9066C7.59769 16.8092 7.56532 16.6974 7.56387 16.583V28.562C7.57663 28.9556 7.74462 29.3279 8.03096 29.5974C8.3173 29.8669 8.69859 30.0114 9.09113 29.9993H30.4728C30.8653 30.0114 31.2466 29.8669 31.533 29.5974C31.8193 29.3279 31.9873 28.9556 32.0001 28.562V16.583C31.9987 16.6973 31.9664 16.8091 31.9066 16.9065C31.8469 17.0039 31.762 17.0832 31.6609 17.136V17.136Z" fill="#1490DF"/>
<path d="M9.09404 29.9993H30.5141C30.8377 30.0003 31.1537 29.9004 31.4182 29.7135L19.1239 22.9464C19.0732 22.9219 19.0239 22.8947 18.9761 22.8648L7.9211 16.7796L7.91761 16.7778L7.91179 16.7749L7.56387 16.583V28.5212C7.57136 28.9206 7.73676 29.3007 8.0237 29.5779C8.31065 29.8551 8.69564 30.0067 9.09404 29.9993Z" fill="#28A8EA"/>
<path opacity="0.5" d="M30.8367 16.9155V17.5746L20.6084 23.0637C20.5618 23.0928 20.5095 23.1162 20.4629 23.1395C20.2504 23.241 20.0176 23.2928 19.7822 23.2911H19.7473L19.1248 22.947C19.0724 22.9237 19.0258 22.8945 18.9735 22.8653L8.72774 17.2246V16.5597L19.2586 22.352C19.3109 22.387 19.3458 22.4045 19.3749 22.422L19.8869 22.702C19.9998 22.6922 20.1101 22.6626 20.2127 22.6145C20.2418 22.597 28.62 18.1055 30.8367 16.9155V16.9155Z" fill="#0A2767"/>
<path opacity="0.2" d="M16.8729 9.19232V24.5569C16.8742 24.6353 16.8664 24.7136 16.8496 24.7902C16.7967 25.1058 16.6336 25.3922 16.3896 25.5984C16.1456 25.8046 15.8364 25.9172 15.5173 25.916H7.56387V16.583L7.86059 16.7463C7.84921 16.7005 7.84335 16.6535 7.84314 16.6063C7.84248 16.4854 7.87325 16.3664 7.93242 16.261C7.9916 16.1557 8.07713 16.0676 8.18059 16.0055C8.18641 15.9996 8.19222 15.9996 8.19804 15.9938L9.05331 15.4922V12.4997H8.72749V7.83319H15.5173C15.695 7.83289 15.871 7.86768 16.0353 7.93558C16.1996 8.00348 16.349 8.10317 16.4749 8.22894C16.6008 8.35471 16.7007 8.50411 16.769 8.66861C16.8373 8.83311 16.8726 9.00948 16.8729 9.18766V9.19232Z" fill="black"/>
<path opacity="0.1" d="M17.4547 9.19239V23.3903C17.4499 23.904 17.2442 24.3953 16.8819 24.7585C16.5196 25.1217 16.0296 25.3279 15.5173 25.3328H7.56387V16.583L7.86059 16.7464C7.84921 16.7006 7.84335 16.6536 7.84314 16.6064C7.84248 16.4855 7.87325 16.3665 7.93242 16.2611C7.9916 16.1557 8.07713 16.0677 8.18059 16.0055C8.18641 15.9997 8.19222 15.9997 8.19804 15.9939L9.05331 15.4922V12.4998H8.72749V7.24994H15.5173C16.0305 7.25178 16.5223 7.45703 16.8852 7.82091C17.2482 8.18479 17.4529 8.67779 17.4547 9.19239V9.19239Z" fill="black"/>
<path opacity="0.2" d="M16.8729 9.19232V23.3903C16.8732 23.5685 16.8385 23.7449 16.7708 23.9097C16.703 24.0744 16.6036 24.2242 16.4782 24.3504C16.3527 24.4766 16.2037 24.5768 16.0396 24.6452C15.8756 24.7137 15.6996 24.7491 15.5219 24.7494H7.56387V16.583L7.86059 16.7463C7.84921 16.7005 7.84335 16.6535 7.84314 16.6063C7.84248 16.4854 7.87325 16.3664 7.93242 16.261C7.9916 16.1557 8.07713 16.0676 8.18059 16.0055C8.18641 15.9996 8.19222 15.9996 8.19804 15.9938L9.05331 15.4922V12.4997H8.72749V7.83319H15.5173C15.695 7.83289 15.871 7.86768 16.0353 7.93558C16.1996 8.00348 16.349 8.10317 16.4749 8.22894C16.6008 8.35471 16.7007 8.50411 16.769 8.66861C16.8373 8.83311 16.8726 9.00948 16.8729 9.18766V9.19232Z" fill="black"/>
<path opacity="0.1" d="M16.2911 9.19232V23.3903C16.2914 23.5685 16.2567 23.7449 16.189 23.9097C16.1212 24.0744 16.0218 24.2242 15.8964 24.3504C15.7709 24.4766 15.6219 24.5768 15.4578 24.6452C15.2937 24.7137 15.1178 24.7491 14.9401 24.7494H7.56387V16.583L7.86059 16.7463C7.84921 16.7005 7.84335 16.6535 7.84314 16.6063C7.84248 16.4854 7.87325 16.3664 7.93242 16.261C7.9916 16.1557 8.07713 16.0676 8.18059 16.0055C8.18641 15.9996 8.19222 15.9996 8.19804 15.9938L9.05331 15.4922V12.4997H8.72749V7.83319H14.9354C15.1132 7.83289 15.2892 7.86768 15.4535 7.93558C15.6178 8.00348 15.7672 8.10317 15.8931 8.22894C16.0189 8.35471 16.1189 8.50411 16.1872 8.66861C16.2555 8.83311 16.2908 9.00948 16.2911 9.18766V9.19232Z" fill="black"/>
<path d="M14.9334 7.83319H1.35737C0.607716 7.83319 0 8.44248 0 9.19407V22.8052C0 23.5568 0.607716 24.1661 1.35737 24.1661H14.9334C15.6831 24.1661 16.2908 23.5568 16.2908 22.8052V9.19407C16.2908 8.44248 15.6831 7.83319 14.9334 7.83319Z" fill="#0F78D4"/>
<path d="M4.49744 13.8082C4.81013 13.1403 5.31485 12.5815 5.94673 12.2035C6.64659 11.8018 7.44346 11.6015 8.24956 11.6248C8.99627 11.6084 9.73313 11.798 10.3796 12.1731C10.9881 12.5366 11.4781 13.0696 11.7899 13.7073C12.1294 14.4093 12.2986 15.1817 12.2839 15.9618C12.3005 16.7773 12.1264 17.5854 11.7753 18.3213C11.4564 18.9811 10.9515 19.5327 10.3231 19.9079C9.65151 20.2952 8.8868 20.4903 8.11225 20.472C7.3496 20.4901 6.59659 20.2982 5.9351 19.9173C5.32163 19.5533 4.82574 19.0199 4.50675 18.3808C4.16487 17.6888 3.99348 16.9247 4.00697 16.1525C3.99205 15.3439 4.15993 14.5424 4.49802 13.8082H4.49744ZM6.04215 17.5752C6.20878 17.9972 6.49119 18.3633 6.85669 18.631C7.22943 18.8927 7.67601 19.0276 8.13086 19.016C8.6148 19.0349 9.09176 18.8957 9.48998 18.6194C9.85134 18.3517 10.1265 17.9836 10.2812 17.5606C10.4551 17.0892 10.5409 16.5898 10.5343 16.0872C10.5398 15.5801 10.4594 15.0757 10.2964 14.5956C10.1525 14.1634 9.88702 13.7822 9.53187 13.4978C9.14378 13.2074 8.66769 13.0599 8.18381 13.0802C7.71943 13.0683 7.26322 13.2041 6.88055 13.4681C6.50783 13.7367 6.21905 14.1062 6.04797 14.5332C5.66937 15.5113 5.66729 16.5957 6.04215 17.5752V17.5752Z" fill="white"/>
<path opacity="0.05" d="M21.1882 22.7516L20.6088 23.0619C20.3595 23.2132 20.0734 23.2925 19.782 23.2912L19.75 23.2906L31.3979 29.7024C31.5614 29.5857 31.6983 29.4356 31.7995 29.262C31.9008 29.0883 31.9642 28.8951 31.9855 28.695L21.1882 22.7516Z" fill="black"/>
<path opacity="0.05" d="M31.4002 29.7036C31.5643 29.5858 31.7025 29.4355 31.8063 29.262L20.5762 23.0812C20.5386 23.1028 20.5002 23.1228 20.461 23.1413C20.2483 23.2405 20.0165 23.2917 19.782 23.2912L19.75 23.2906L31.4002 29.7036Z" fill="black"/>
<defs>
<linearGradient id="paint0_linear_3274_7724" x1="19.782" y1="16.583" x2="19.782" y2="29.9999" gradientUnits="userSpaceOnUse">
<stop stop-color="#35B8F1"/>
<stop offset="1" stop-color="#28A8EA"/>
</linearGradient>
</defs>
</svg>
